<svg width="15" height="10" viewBox="0 0 15 10" fill="none" xmlns="http://www.w3.org/2000/svg">
<path fill-rule="evenodd" clip-rule="evenodd" d="M2.25 0C1.00736 0 0 0.95939 0 2.14286V7.85714C0 9.04061 1.00736 10 2.25 10H12.75C13.9926 10 15 9.04061 15 7.85714V2.14286C15 0.95939 13.9926 0 12.75 0H2.25ZM2.47462 1.51196C2.16439 1.34078 1.76723 1.44158 1.58754 1.73711C1.40784 2.03264 1.51366 2.41099 1.82388 2.58218L7.5 5.71429L13.1761 2.58218C13.4863 2.41099 13.5922 2.03264 13.4125 1.73711C13.2328 1.44158 12.8356 1.34078 12.5254 1.51196L7.5 4.28499L2.47462 1.51196Z" fill="#B7CA39"/>
</svg>
