<svg width="11" height="11" viewBox="0 0 11 11" fill="none" xmlns="http://www.w3.org/2000/svg">
<path d="M9.87833 10.4509C9.58452 10.7953 9.17234 11.019 8.72054 10.9987C7.55547 10.9463 5.11824 10.5307 2.79337 8.20219C0.468779 5.87391 0.0536905 3.43313 0.00128016 2.26605C-0.0190523 1.81328 0.204545 1.40023 0.548667 1.10593L1.65514 0.159619C1.94585 -0.0890116 2.38548 -0.0416676 2.61678 0.26318L4.10463 2.22417C4.26825 2.43981 4.26905 2.73802 4.1066 2.95454L2.57955 4.98987L6.0006 8.41634L8.13077 6.94996C8.34492 6.80254 8.62917 6.80863 8.83684 6.96508L10.7515 8.4075C11.0386 8.6238 11.084 9.03786 10.8506 9.31142L9.87833 10.4509Z" fill="#B7CA39"/>
</svg>
