<svg width="19" height="19" viewBox="0 0 19 19" fill="none" xmlns="http://www.w3.org/2000/svg">
<path d="M8.90602 0C9.30184 0 9.69766 0 10.0935 0C10.4171 0.0421424 10.7421 0.0733774 11.0637 0.12841C12.8415 0.432331 14.4149 1.17404 15.7646 2.37039C17.4256 3.84289 18.4637 5.67385 18.854 7.86377C18.9154 8.20934 18.952 8.55887 19 8.90692V10.0943C18.9896 10.1419 18.9723 10.1895 18.9693 10.2376C18.9446 10.608 18.8882 10.9739 18.8194 11.3383C18.0075 15.6319 14.1556 18.9006 9.78771 18.9973C7.5048 19.0479 5.44702 18.389 3.65246 16.9735C1.74607 15.4707 0.571964 13.5143 0.142496 11.1196C0.0816385 10.7805 0.0465092 10.4364 0 10.0948C0 9.6992 0 9.30306 0 8.90742C0.0286972 8.67539 0.0529413 8.44286 0.0860915 8.21132C0.356241 6.32037 1.11325 4.64855 2.38285 3.22117C3.85284 1.5672 5.68055 0.533969 7.86352 0.146259C8.20887 0.0847806 8.55819 0.0480919 8.90602 0ZM7.19804 8.90692C7.71706 8.90692 8.23609 8.90295 8.75511 8.9099C8.87782 8.91138 8.90948 8.87469 8.90849 8.75471C8.90354 7.83402 8.90354 6.91334 8.90849 5.99265C8.90899 5.86771 8.8699 5.83647 8.75165 5.83697C7.86203 5.84094 6.97242 5.84094 6.08232 5.83697C5.97544 5.83647 5.92943 5.8692 5.90568 5.97232C5.69391 6.88904 5.56527 7.81717 5.52371 8.75719C5.51827 8.88511 5.56131 8.91039 5.67808 8.9094C6.18473 8.90395 6.69139 8.90692 7.19804 8.90692ZM7.21239 10.0943C6.70574 10.0943 6.19908 10.0998 5.69243 10.0909C5.55092 10.0884 5.51728 10.1281 5.5242 10.2669C5.56874 11.1945 5.69342 12.1102 5.90321 13.0151C5.92745 13.1197 5.96753 13.1663 6.08677 13.1653C6.97638 13.1598 7.86599 13.1598 8.7561 13.1653C8.88128 13.1658 8.90899 13.1231 8.90849 13.0051C8.90404 12.0845 8.90354 11.1638 8.90899 10.2431C8.90998 10.1167 8.86693 10.0909 8.75115 10.0924C8.23856 10.0978 7.72548 10.0948 7.21288 10.0948L7.21239 10.0943ZM11.7876 8.90692C12.2943 8.90692 12.8009 8.90147 13.3076 8.91039C13.4511 8.91287 13.4812 8.87023 13.4748 8.73339C13.4303 7.80576 13.3056 6.89003 13.0958 5.98521C13.0716 5.87961 13.0295 5.83499 12.9117 5.83598C12.0281 5.84143 11.1449 5.84242 10.2612 5.83548C10.1158 5.83449 10.09 5.88357 10.0905 6.01595C10.096 6.92424 10.0969 7.83254 10.0895 8.74083C10.0885 8.88709 10.136 8.91188 10.2676 8.9099C10.7743 8.90246 11.281 8.90692 11.7876 8.90692ZM11.7861 10.0943C11.2735 10.0943 10.7604 10.0978 10.2479 10.0919C10.1311 10.0904 10.0895 10.1176 10.0905 10.2431C10.096 11.1638 10.0955 12.0845 10.0905 13.0051C10.09 13.1236 10.1187 13.1653 10.2434 13.1648C11.133 13.1598 12.0226 13.1608 12.9122 13.1648C13.0156 13.1648 13.0676 13.139 13.0918 13.0329C13.3031 12.1157 13.4323 11.1881 13.4743 10.248C13.4798 10.1261 13.4466 10.0904 13.3239 10.0919C12.8113 10.0983 12.2982 10.0943 11.7856 10.0943H11.7861ZM16.2243 8.90692C16.6879 8.90692 17.1515 8.90097 17.6146 8.91039C17.7601 8.91337 17.7898 8.86974 17.7764 8.7329C17.6809 7.75916 17.4286 6.82955 17.011 5.94406C16.9679 5.85284 16.9101 5.83747 16.8225 5.83796C16.0254 5.83995 15.2283 5.84193 14.4312 5.83647C14.2951 5.83548 14.2853 5.87663 14.3115 5.9981C14.5084 6.9054 14.6296 7.82262 14.6568 8.75124C14.6608 8.88808 14.7132 8.91089 14.8335 8.9094C15.2971 8.90345 15.7602 8.90692 16.2238 8.90692H16.2243ZM16.2376 10.0943C15.7617 10.0943 15.2862 10.0973 14.8102 10.0919C14.6994 10.0904 14.6618 10.1226 14.6583 10.2366C14.6286 11.1772 14.5084 12.1073 14.3055 13.026C14.2798 13.1425 14.312 13.1638 14.4174 13.1633C15.2268 13.1608 16.0363 13.1613 16.8457 13.1633C16.9219 13.1633 16.9689 13.1435 17.0041 13.0691C17.4291 12.1732 17.6849 11.2322 17.7774 10.2446C17.7893 10.1152 17.7447 10.0909 17.6275 10.0924C17.1639 10.0978 16.7008 10.0948 16.2372 10.0948L16.2376 10.0943ZM2.77126 10.0943C2.31408 10.0943 1.85641 10.0993 1.39923 10.0914C1.25921 10.0889 1.20578 10.1157 1.22161 10.2713C1.31908 11.2451 1.56993 12.1747 1.98951 13.0597C2.0281 13.141 2.07708 13.1638 2.1607 13.1633C2.96422 13.1608 3.76725 13.1603 4.57077 13.1633C4.68407 13.1633 4.7192 13.145 4.691 13.0175C4.48962 12.1048 4.36939 11.1811 4.34069 10.2466C4.33674 10.1271 4.30161 10.0894 4.17989 10.0914C3.71035 10.0983 3.2408 10.0943 2.77076 10.0943H2.77126ZM2.76087 8.90692C3.23684 8.90692 3.71233 8.90395 4.1883 8.9094C4.29913 8.91089 4.33674 8.87916 4.3402 8.76512C4.3689 7.82411 4.49012 6.8945 4.69248 5.97579C4.71821 5.85928 4.68753 5.83796 4.58116 5.83796C3.7717 5.84044 2.96224 5.83995 2.15278 5.83796C2.07659 5.83796 2.02958 5.85779 1.99445 5.93216C1.56845 6.82806 1.31265 7.76858 1.22111 8.7562C1.20924 8.88511 1.25278 8.91039 1.37054 8.9089C1.83414 8.90345 2.29726 8.90642 2.76087 8.90642V8.90692ZM8.90602 1.41946C8.59777 1.51068 8.3484 1.66636 8.11981 1.85377C7.25098 2.56573 6.75225 3.5236 6.35049 4.54394C6.28864 4.70061 6.42371 4.64905 6.48358 4.64905C7.2307 4.65252 7.97781 4.64756 8.72443 4.6545C8.86792 4.65599 8.91097 4.61881 8.90948 4.47106C8.90255 3.60045 8.90602 2.72984 8.90602 1.85922C8.90602 1.71891 8.90602 1.57811 8.90602 1.41946ZM12.6738 4.65103C12.6604 4.59451 12.6559 4.55782 12.6431 4.52411C12.4204 3.95345 12.1577 3.40312 11.8138 2.89444C11.4823 2.4041 11.0974 1.96483 10.5902 1.64802C10.4398 1.55431 10.285 1.46705 10.1093 1.4259C10.1024 1.44672 10.0955 1.45763 10.0955 1.46903C10.0945 2.48838 10.0965 3.50724 10.091 4.52659C10.0905 4.66591 10.1697 4.65103 10.2573 4.65103C10.9307 4.65103 11.6036 4.65103 12.2769 4.65103C12.4056 4.65103 12.5337 4.65103 12.6738 4.65103ZM8.90602 15.9814C8.90602 15.4876 8.90354 14.9933 8.908 14.4995C8.90899 14.3929 8.8887 14.3468 8.76797 14.3473C7.99612 14.3522 7.22426 14.3517 6.45241 14.3478C6.33267 14.3473 6.31833 14.3835 6.3589 14.4871C6.64834 15.2194 6.99865 15.9179 7.50035 16.5302C7.84422 16.9502 8.24103 17.3061 8.74521 17.5293C8.86891 17.5838 8.91146 17.5793 8.90899 17.4261C8.90057 16.9447 8.90602 16.4628 8.90602 15.9809V15.9814ZM10.0935 17.5808C10.3953 17.4921 10.6402 17.3404 10.8653 17.1579C11.7441 16.4455 12.2443 15.4816 12.6495 14.4558C12.7114 14.2992 12.5738 14.3522 12.5149 14.3517C11.7678 14.3482 11.0207 14.3532 10.2736 14.3458C10.1271 14.3443 10.0895 14.3864 10.0905 14.5312C10.097 15.439 10.094 16.3468 10.094 17.2546V17.5803L10.0935 17.5808ZM12.4813 1.76106C13.1191 2.60589 13.5688 3.54244 13.9063 4.53551C13.9439 4.64657 14.0106 4.65203 14.1022 4.65203C14.7573 4.65054 15.4119 4.65203 16.067 4.65004C16.1125 4.65004 16.1644 4.6674 16.2188 4.61236C15.2501 3.29851 14.0106 2.34411 12.4818 1.76106H12.4813ZM6.5192 1.75957C4.98885 2.34758 3.74745 3.2995 2.77225 4.62575C2.81331 4.63913 2.82964 4.64855 2.84547 4.64855C3.54361 4.65004 4.24174 4.64855 4.93987 4.65302C5.04724 4.65351 5.07247 4.59352 5.10018 4.51221C5.24713 4.07938 5.41931 3.65746 5.6197 3.24645C5.87451 2.72389 6.17583 2.23008 6.5192 1.75907V1.75957ZM6.5192 17.2397C5.87995 16.3929 5.42772 15.4519 5.08979 14.4524C5.05416 14.3478 4.98589 14.3492 4.90326 14.3492C4.34762 14.3502 3.79149 14.3492 3.23585 14.3492C3.09039 14.3492 2.94443 14.3492 2.75443 14.3492C3.74844 15.6993 4.98786 16.6527 6.5197 17.2392L6.5192 17.2397ZM16.2411 14.3597C16.1476 14.3552 16.0937 14.3502 16.0397 14.3502C15.4035 14.3497 14.7672 14.3547 14.1309 14.3463C13.9864 14.3443 13.9265 14.3953 13.8835 14.5257C13.6391 15.2605 13.3175 15.9601 12.9009 16.6135C12.7663 16.8252 12.6169 17.0275 12.4476 17.2729C14.0077 16.6601 15.2461 15.7037 16.2416 14.3597H16.2411Z" fill="#012030"/>
</svg>
