<svg width="86" height="65" viewBox="0 0 86 65" fill="none" xmlns="http://www.w3.org/2000/svg">
<path d="M0 6.95227C0.166048 6.4234 0.3119 5.88549 0.500387 5.36566C1.62906 2.22632 4.55958 0.0452869 7.86707 0.031726C16.0662 -0.00443622 24.2676 -0.0179971 32.4668 0.0362463C36.7459 0.0656281 40.2688 3.62309 40.2913 7.93995C40.3406 17.0438 40.3496 26.1499 40.2755 35.2537C40.2509 38.3908 39.6338 41.4375 38.3682 44.3644C35.9045 50.0667 33.5753 55.8278 31.1631 61.5527C30.2297 63.7677 28.5153 64.9339 26.1256 64.9701C23.3005 65.013 20.4732 64.9904 17.6459 64.9768C15.678 64.9678 14.4978 63.4919 14.8725 61.5505C16.1695 54.8356 17.4619 48.1207 18.7769 41.4104C18.9003 40.7843 18.7858 40.5967 18.1127 40.6035C14.9219 40.6397 11.731 40.6216 8.54248 40.6193C4.13773 40.6171 1.14663 38.219 0.132389 33.8886C0.114438 33.814 0.0471216 33.7507 0.00224389 33.6829C0 24.7712 0 15.8617 0 6.95227Z" fill="#314357"/>
<path d="M85.997 21.7765C85.997 25.8086 85.997 29.8384 85.997 33.8705C85.997 37.7128 85.3755 41.4036 83.8159 44.9633C81.4038 50.4735 79.1689 56.0606 76.8262 61.6025C75.9175 63.7496 74.2413 64.9136 71.9256 64.9633C69.0444 65.0266 66.161 64.9927 63.2776 64.9746C61.3681 64.9633 60.1878 63.4671 60.5536 61.5776C61.8528 54.8627 63.143 48.1456 64.4624 41.4352C64.5993 40.7436 64.4108 40.5967 63.7444 40.6035C60.5266 40.6351 57.3067 40.6238 54.0889 40.6171C49.1636 40.6058 45.6968 37.1138 45.6923 32.146C45.6856 24.2536 45.6856 16.359 45.6923 8.46657C45.6923 3.51008 49.1703 0.0204253 54.1046 0.015905C61.9403 0.00912462 69.7782 0.00912462 77.6138 0.015905C82.5369 0.0204253 85.988 3.51686 85.997 8.49821C86.0037 12.9236 85.997 17.3512 85.997 21.7765Z" fill="#314357"/>
</svg>
