<svg width="22" height="31" viewBox="0 0 22 31" fill="none" xmlns="http://www.w3.org/2000/svg">
<path d="M22 11.2639C21.9933 13.3222 21.4877 15.2381 20.7435 17.0937C19.3812 20.494 17.3974 23.5034 15.1725 26.3574C13.9371 27.9411 12.6176 29.4471 11.2049 30.8667C11.0823 30.9902 11.0092 31.0765 10.8354 30.8995C7.6673 27.6709 4.88811 24.1317 2.69684 20.1272C1.54535 18.024 0.648351 15.8181 0.197331 13.431C-0.944078 7.38112 2.9866 1.37789 8.87338 0.21021C15.055 -1.01615 20.9401 3.25239 21.8866 9.65089C21.9672 10.1955 21.9899 10.7452 22 11.2639ZM11.0235 6.51982C8.4568 6.51119 6.36211 8.63424 6.34784 11.2579C6.33356 13.9168 8.42824 16.0934 11.0033 16.0951C13.5516 16.0969 15.6513 13.9479 15.663 11.3269C15.6748 8.67739 13.6003 6.52845 11.0227 6.51982H11.0235Z" fill="#B7CA39"/>
</svg>
