<svg width="68" height="68" viewBox="0 0 68 68" fill="none" xmlns="http://www.w3.org/2000/svg">
<path d="M0.80718 67.9982C0.179176 67.6437 0 67.1013 0 66.394C0.0159662 57.8589 0.00709608 49.322 0.0124181 40.7869C0.0124181 37.7805 1.6729 35.6108 4.49537 34.9337C5.60058 34.6678 6.69161 34.7954 7.78086 35.2014C7.88552 34.8947 7.69038 34.6802 7.60168 34.4498C6.27116 30.9382 5.58639 27.315 5.7159 23.5535C5.8862 18.5282 10.2024 14.0789 15.2335 13.712C16.8922 13.5915 18.5066 13.7599 20.0464 14.398C23.4579 15.8108 26.9261 16.1139 30.4724 14.967C30.8023 14.8607 30.9584 14.9493 31.056 15.2666C31.1926 15.7097 31.3274 16.1564 31.5155 16.5783C31.6787 16.9417 31.5119 17.0268 31.2139 17.1207C27.6375 18.2481 24.0681 18.2339 20.5378 16.9701C18.8845 16.378 17.263 15.8143 15.4535 15.9579C11.4868 16.2717 8.09663 19.7212 7.97955 23.7042C7.85004 28.079 8.72996 32.2819 10.8641 36.0806C12.3685 38.7572 12.7268 41.5916 13.0284 44.5111C13.4542 48.6218 13.9172 52.7272 14.3855 56.8326C14.5292 58.0858 15.3737 58.8959 16.4807 58.9349C17.5788 58.9739 18.4197 58.2205 18.6396 56.9265C19.4326 52.2663 20.1848 47.6008 20.9973 42.9441C21.3823 40.7337 22.7057 39.2908 24.8913 38.7253C26.9048 38.2042 28.9911 39.0214 30.2666 40.755C30.946 41.6785 31.1447 42.7651 31.3274 43.857C32.0495 48.1928 32.7679 52.5286 33.4917 56.8645C33.7029 58.1354 34.5934 58.9579 35.7022 58.9207C36.8287 58.8835 37.6057 58.1141 37.7547 56.8095C38.2887 52.1334 38.8032 47.4537 39.3247 42.7757C39.4152 41.9621 39.4915 41.1485 39.5979 40.3384C39.6618 39.8545 39.7771 39.3652 40.0876 38.9806C41.175 37.6387 42.2944 36.3075 43.8378 35.4726C47.4036 33.5422 51.7535 35.9246 52.0782 39.9555C52.1172 40.4394 52.1403 40.9269 52.1403 41.4126C52.1438 49.7049 52.1403 57.9972 52.1491 66.2894C52.1491 66.9896 52.032 67.5941 51.404 68H0.80718V67.9982ZM26.0621 65.7381C33.6975 65.7381 41.3311 65.7399 48.9665 65.7364C49.9387 65.7364 49.8624 65.8977 49.8642 64.8678C49.8677 56.93 49.866 48.9905 49.8642 41.0528C49.8642 40.7443 49.8535 40.4341 49.8269 40.1257C49.646 38.0801 47.691 36.662 45.7041 37.1814C43.9833 37.6316 43.0395 39.0621 41.9574 40.2994C41.8438 40.4288 41.8474 40.6752 41.8261 40.8702C41.2141 46.2944 40.602 51.7168 39.9971 57.141C39.9013 57.9936 39.6458 58.786 39.1083 59.4596C37.9303 60.9344 36.3745 61.4963 34.565 61.046C32.658 60.571 31.5864 59.2238 31.2583 57.3094C30.742 54.3048 30.2559 51.2967 29.7574 48.2903C29.4825 46.6347 29.2305 44.9738 28.9325 43.3235C28.5759 41.347 26.621 40.2835 24.8718 41.0971C23.7808 41.604 23.3302 42.5435 23.1457 43.6762C22.4751 47.7958 21.7921 51.9136 21.1038 56.0313C20.8962 57.2668 20.8022 58.5502 19.9258 59.5641C18.6964 60.9875 17.153 61.4963 15.3346 61.023C13.5251 60.5515 12.3454 59.0412 12.1166 56.9868C11.6092 52.4187 11.0575 47.8543 10.637 43.2792C10.4561 41.3062 10.0782 39.5904 8.37693 38.2751C7.04286 37.2452 5.72654 36.7542 4.36587 37.3445C2.83843 38.0074 2.26542 39.2482 2.26897 40.856C2.27962 48.9054 2.28139 56.9531 2.25833 65.0025C2.25833 65.6229 2.43573 65.7541 3.02648 65.7541C10.7062 65.7346 18.3842 65.7417 26.0639 65.7417L26.0621 65.7381Z" fill="#B7CA39"/>
<path d="M68 18.374C67.7197 20.0243 67.4767 21.6817 66.815 23.2398C64.3366 29.0735 60.0276 32.7516 53.7493 33.7461C46.8892 34.8327 41.2886 32.4113 37.1728 26.8417C34.4816 23.1973 33.5113 19.0192 34.228 14.538C35.193 8.50585 38.4909 4.0956 44.0472 1.60153C49.8358 -0.995343 55.4985 -0.406837 60.7425 3.16852C64.4236 5.67854 66.6784 9.22376 67.6292 13.5791C67.7836 14.2863 67.8776 15.006 68 15.7204V18.374ZM65.7346 17.0162C65.7026 8.90114 59.0306 2.26981 50.9552 2.32653C42.8497 2.38325 36.2752 8.97559 36.2681 17.0498C36.2628 25.1418 42.9207 31.7856 51.0173 31.7678C59.1317 31.7501 65.7647 25.101 65.7328 17.0162H65.7346Z" fill="#B7CA39"/>
<path d="M10.2148 25.7693C10.2627 22.8605 11.3857 20.4816 13.6972 18.6753C14.0236 18.4201 14.1922 18.4218 14.4015 18.7905C14.6623 19.2496 15.1608 19.6556 15.2193 20.1253C15.285 20.6589 14.5523 20.8379 14.217 21.2243C13.1668 22.435 12.5512 23.8088 12.4962 25.4166C12.4802 25.8792 12.4696 26.3436 12.4909 26.8063C12.5086 27.1626 12.3632 27.2884 12.0279 27.2512C11.9196 27.2388 11.8079 27.2512 11.6961 27.2512C10.7003 27.2524 10.2065 26.759 10.2148 25.7711V25.7693Z" fill="#B7CA39"/>
<path d="M39.6813 17.0162C39.6813 15.9774 39.6724 14.9387 39.6849 13.8999C39.6973 12.9267 40.0911 12.5332 41.0597 12.5279C42.6741 12.519 44.2884 12.5084 45.9028 12.5368C46.3782 12.5456 46.4971 12.3932 46.49 11.9376C46.4634 10.3689 46.4776 8.80011 46.4811 7.23134C46.4847 6.12169 46.8466 5.74058 47.9341 5.73703C49.9901 5.72994 52.048 5.72817 54.1041 5.73703C55.1525 5.74235 55.5233 6.12878 55.5269 7.19412C55.5322 8.76288 55.5464 10.3334 55.518 11.9004C55.5091 12.3826 55.6191 12.5492 56.1353 12.5385C57.7266 12.5031 59.3197 12.5208 60.9128 12.5279C61.9258 12.5315 62.3196 12.9161 62.3249 13.9283C62.3356 16.0058 62.3338 18.0833 62.3249 20.1608C62.3196 21.1765 61.9275 21.5611 60.9163 21.5647C59.3233 21.5718 57.7302 21.5877 56.1389 21.554C55.6315 21.5434 55.5091 21.7012 55.518 22.1886C55.5481 23.7574 55.5322 25.3262 55.5286 26.8949C55.5251 27.962 55.1561 28.3502 54.1094 28.3556C52.0303 28.3644 49.9511 28.3662 47.872 28.3556C46.8679 28.3502 46.4864 27.9514 46.4829 26.9321C46.4776 25.3634 46.4616 23.7929 46.4918 22.2259C46.5006 21.7224 46.3871 21.5399 45.8425 21.554C44.2725 21.593 42.7025 21.5718 41.1325 21.5665C40.0751 21.5629 39.6955 21.1871 39.6866 20.1324C39.6778 19.0937 39.6849 18.0549 39.6849 17.0162H39.6813ZM48.7412 11.0017C48.7412 11.7533 48.7448 12.5049 48.7412 13.2564C48.7359 14.3838 48.3438 14.7827 47.2298 14.7862C45.681 14.7915 44.1323 14.8039 42.5836 14.7774C42.1206 14.7703 41.9148 14.8465 41.9361 15.38C41.9804 16.5056 41.968 17.6348 41.9396 18.7622C41.929 19.1982 42.0656 19.3241 42.4984 19.317C44.0685 19.294 45.6402 19.3046 47.212 19.3081C48.3403 19.3117 48.7395 19.7052 48.743 20.8184C48.7483 22.3659 48.7607 23.9134 48.7341 25.4609C48.727 25.9235 48.8033 26.1292 49.3373 26.1079C50.4638 26.0636 51.5939 26.076 52.7221 26.1043C53.1585 26.115 53.2845 25.9785 53.2774 25.546C53.2543 23.9772 53.265 22.4067 53.2685 20.8361C53.2721 19.7088 53.6659 19.3099 54.78 19.3064C56.3287 19.3011 57.8774 19.2886 59.4262 19.3152C59.8892 19.3223 60.095 19.2461 60.0737 18.7125C60.0293 17.5869 60.0417 16.4578 60.0701 15.3304C60.0808 14.8943 59.9442 14.7685 59.5113 14.7756C57.9413 14.7986 56.3695 14.788 54.7977 14.7844C53.6695 14.7809 53.2703 14.3874 53.2668 13.2742C53.2614 11.6824 53.2579 10.0906 53.2721 8.49876C53.2756 8.14956 53.21 7.98116 52.8055 7.99002C51.5885 8.01307 50.3716 8.00598 49.1546 7.99357C48.8388 7.99002 48.7306 8.09815 48.7359 8.41368C48.7519 9.27517 48.7412 10.1384 48.7412 10.9999V11.0017Z" fill="#B7CA39"/>
</svg>
