<svg width="74" height="69" viewBox="0 0 74 69" fill="none" xmlns="http://www.w3.org/2000/svg">
<path d="M47.895 9.53844C47.0816 3.93191 41.9631 -0.336277 36.4886 0.0208769C30.5703 0.407467 26.0727 5.13093 26.028 11.0083C26.0221 11.805 25.7497 12.2249 25.0257 12.5586C18.3153 15.6493 13.3585 20.6573 10.2933 27.4413C9.98381 28.1281 9.58095 28.4578 8.85893 28.6167C4.56959 29.5626 1.72819 32.2118 0.41064 36.4918C0.291924 36.8745 0.204347 37.2807 0.118716 37.6732C0.0797926 37.8517 0.0408694 38.0303 0 38.2069V40.6364C0.0136231 40.6972 0.0291924 40.758 0.0428156 40.8208C0.0817388 40.9817 0.122608 41.1485 0.149854 41.3212C0.885504 45.8465 4.4859 49.5515 8.90758 50.3305C9.58874 50.4502 9.96435 50.7564 10.2543 51.4236C15.8223 64.2635 29.6692 71.3555 43.1737 68.2903C52.6865 66.1297 59.6362 60.3878 63.8322 51.2254C64.0346 50.7819 64.2895 50.466 64.8714 50.3678C70.0871 49.4926 73.925 45.0027 73.9989 39.6925C74.0729 34.2723 70.3635 29.6176 65.1789 28.6207C64.4394 28.4774 64.0209 28.1379 63.6881 27.402C60.6288 20.6495 55.6875 15.6591 49.0005 12.5703C48.3057 12.2485 47.8658 11.8462 47.9787 10.9258C48.0313 10.4863 47.9632 10.0075 47.895 9.54237V9.53844ZM8.6429 46.8159C8.65069 46.8453 8.66237 46.8767 8.67404 46.9081C8.73048 47.0573 8.83363 47.332 8.61371 47.5714C8.50278 47.6911 8.38212 47.7284 8.27119 47.7284C8.12133 47.7284 7.98899 47.6597 7.92088 47.6244C7.89558 47.6107 7.86833 47.5969 7.84498 47.5871C4.47812 46.3724 2.21668 42.8695 2.34123 39.0684C2.45995 35.4674 5.01137 32.1392 8.40742 31.158L8.88034 31.0207L8.71297 31.7742C8.42688 33.0616 8.15636 34.2763 7.99094 35.5067C7.48883 39.2352 7.70875 43.0403 8.64485 46.8139L8.6429 46.8159ZM65.2373 31.6172L65.1302 31.2169L65.5409 31.2483C68.4037 31.4661 71.4942 35.3615 71.6616 38.9683C71.8503 43.0207 69.0012 47.1044 65.5623 47.7068L65.1127 47.7853L65.2295 47.3399C66.6152 42.1003 66.6171 36.8117 65.2354 31.6192L65.2373 31.6172ZM28.412 9.91915C28.92 5.59994 32.9952 2.1481 37.2982 2.36985C41.7744 2.60338 45.4293 6.11016 45.6161 10.3548C45.62 10.4353 45.62 10.5157 45.618 10.6276V11.232L45.2444 11.126C42.1247 10.2312 39.0731 9.85046 35.9203 9.96232C33.7834 10.0389 31.6349 10.3607 29.5311 10.92L29.5116 10.9258C28.9939 11.0632 28.7331 11.1339 28.5229 10.9494C28.3108 10.763 28.3439 10.4824 28.4101 9.92111L28.412 9.91915ZM48.5314 14.8879C56.2966 18.8127 61.2301 24.9667 63.1919 33.1832C64.924 40.4323 63.6784 47.8697 59.6868 54.1238C55.6466 60.4525 49.3508 64.7286 41.9554 66.167C40.4821 66.4535 38.8551 66.6085 36.9829 66.6419H36.9771C23.7743 66.6124 12.5917 57.0144 10.3886 43.8193C9.22481 36.849 10.8596 29.751 14.9932 23.8325C19.1249 17.9159 25.195 13.9793 32.0825 12.7469C36.2453 12.0032 40.3868 12.1955 44.392 13.318C44.643 13.3886 44.9466 13.5044 45.0692 13.7772C45.1879 14.0402 45.0887 14.3188 44.9622 14.5818C43.4189 17.804 40.8947 19.5702 37.4578 19.8292C37.3955 19.8331 37.3352 19.837 37.2729 19.841C37.1191 19.8488 36.9751 19.8586 36.8389 19.8841C36.1967 20.0097 35.786 20.5239 35.8425 21.1342C35.8989 21.7621 36.3777 22.1841 37.0355 22.1841H37.0432C39.7581 22.1841 42.1947 21.248 44.2888 19.4014C45.5869 18.2573 46.5308 16.9209 47.0971 15.4334C47.2042 15.1528 47.3521 14.8506 47.6459 14.7348C47.9359 14.621 48.2415 14.7407 48.5275 14.8859L48.5314 14.8879Z" fill="#B7CA39"/>
<path d="M50.5632 45.3694C47.2801 45.3694 43.9969 45.3694 40.7118 45.3694H33.2638C32.0124 45.3694 30.761 45.3694 29.5097 45.3694C27.4234 45.3694 25.339 45.3694 23.2527 45.3713C22.7059 45.3713 22.3303 45.4871 22.1065 45.7206C21.8846 45.9522 21.7834 46.329 21.8028 46.8686C21.8262 47.5712 21.8787 48.207 21.9644 48.8094C23.0873 56.8022 30.2842 62.5187 38.3452 61.8259C45.9158 61.1744 52.0014 54.6829 52.2038 47.0472C52.2214 46.3741 52.1241 45.9522 51.8964 45.7167C51.6667 45.4793 51.2444 45.3674 50.5671 45.3674L50.5632 45.3694ZM39.7737 47.7183C41.3404 47.7183 41.4669 47.8459 41.4669 49.4315C41.4669 50.9131 41.3326 51.0505 39.8769 51.0505C38.2946 51.0505 38.1662 50.9229 38.1662 49.355C38.1662 47.787 38.3024 47.7183 39.7737 47.7183ZM34.1941 47.7183C35.714 47.7183 35.8366 47.8439 35.8366 49.3923C35.8366 50.9406 35.7121 51.0505 34.161 51.0505C32.6099 51.0505 32.5359 50.9112 32.5359 49.3942C32.5359 47.8773 32.6605 47.7203 34.1941 47.7203V47.7183ZM49.74 48.572C48.8253 54.8222 43.3488 59.5358 37.0024 59.5358H36.9965C30.6365 59.5339 25.1639 54.8163 24.2628 48.5641C24.2297 48.3306 24.2103 48.0873 24.3679 47.9048C24.5216 47.7282 24.7591 47.7085 24.9517 47.7105C26.4639 47.7321 27.9547 47.7321 29.3832 47.7105C29.57 47.7085 29.8347 47.7262 30.0157 47.9107C30.1966 48.0932 30.2142 48.3522 30.2103 48.5563C30.1908 49.5453 30.1908 50.6148 30.2064 51.9218C30.22 52.9717 30.6248 53.3857 31.6543 53.3936C32.9135 53.4034 34.1941 53.4014 35.4338 53.3995C35.969 53.3995 36.5042 53.3995 37.0394 53.3995H38.5515C39.7698 53.3995 40.9881 53.4034 42.2045 53.3995C43.4014 53.3955 43.7867 52.9991 43.7945 51.7746V51.3017C43.8023 50.399 43.8081 49.4668 43.7886 48.5524C43.7847 48.3659 43.8003 48.0991 43.9833 47.9146C44.1642 47.7301 44.4211 47.7105 44.6235 47.7144C45.9489 47.7341 47.3735 47.7341 48.9829 47.7144C49.2184 47.7105 49.4636 47.7242 49.6232 47.9107C49.7828 48.0951 49.7692 48.3483 49.7381 48.574L49.74 48.572Z" fill="#B7CA39"/>
<path d="M42.1753 31.1951C42.3173 34.1504 44.6956 36.3797 47.7121 36.3875C47.7646 36.3797 47.8289 36.3738 47.9009 36.366C48.1033 36.3424 48.3796 36.311 48.6443 36.26C51.0576 35.7949 52.9706 33.4322 52.9084 30.9949C52.8928 30.4062 52.6476 30.0451 52.1377 29.8587C51.6784 29.6919 51.2775 29.792 50.9155 30.1668C50.6411 30.4494 50.6041 30.8261 50.5613 31.2638C50.4387 32.5118 49.6057 33.5225 48.3835 33.911C47.5661 34.172 46.5853 34.0072 45.8243 33.4793C45.0147 32.92 44.5321 32.031 44.4679 30.9753C44.4426 30.571 44.3063 30.2492 44.0708 30.0431C43.8801 29.8763 43.631 29.79 43.343 29.79C43.304 29.79 43.2632 29.79 43.2223 29.7939C42.5567 29.8469 42.1364 30.4082 42.1733 31.1911L42.1753 31.1951Z" fill="#B7CA39"/>
<path d="M22.4898 31.197C22.6378 34.1092 24.9984 36.3875 27.8632 36.3875H27.871C29.3014 36.3875 30.7143 35.7694 31.7458 34.696C32.7305 33.6736 33.2716 32.3215 33.2346 30.989C33.2171 30.4023 32.9699 30.0412 32.4581 29.8567C31.9968 29.6919 31.5979 29.792 31.2378 30.1687C30.979 30.4396 30.9284 30.7967 30.8934 31.2049C30.7844 32.5001 29.9203 33.5617 28.6942 33.909C27.8126 34.1583 26.9407 34.0346 26.2382 33.5637C25.45 33.0319 24.9401 32.1174 24.8038 30.989C24.7124 30.2217 24.2998 29.7939 23.6673 29.7939C23.6264 29.7939 23.5875 29.7939 23.5447 29.7998C22.8752 29.8548 22.4509 30.418 22.4898 31.199V31.197Z" fill="#B7CA39"/>
</svg>
