<svg width="75" height="75" viewBox="0 0 75 75" fill="none" xmlns="http://www.w3.org/2000/svg">
<path d="M0 21.6919C0.12135 21.101 0.213341 20.5023 0.366006 19.9192C1.51687 15.5718 5.26893 12.5039 9.8215 12.4668C11.4264 12.4531 12.3738 11.9268 13.3857 10.7274C17.8776 5.40954 23.6886 2.23016 30.451 0.782325C36.9588 -0.610731 43.3532 -0.145075 49.5968 2.19299C49.6888 2.22625 49.7827 2.2556 49.8708 2.29473C50.5539 2.59408 50.8397 3.15952 50.6009 3.74452C50.3543 4.35105 49.7964 4.58975 49.0781 4.32953C47.8627 3.89126 46.6472 3.44909 45.3848 3.16735C35.1464 0.886021 25.7457 2.56082 17.6642 9.4811C12.0704 14.2707 9.17365 20.4455 9.38699 27.9215C9.42809 29.338 9.62577 30.7428 9.98004 32.1163C10.532 34.2626 12.5088 36 14.5737 36.2035C14.9104 36.2368 15.2333 36.3072 15.1139 35.7652C14.1412 31.4061 16.3039 28.1386 18.866 25.0062C20.2537 23.308 21.9486 21.9521 23.6691 20.6236C24.0507 20.3281 24.2073 20.1501 23.9333 19.6473C23.4733 18.8079 23.262 17.8707 23.2835 16.9003C23.2991 16.2116 23.7141 15.7401 24.3189 15.7107C24.9119 15.6814 25.413 16.1275 25.46 16.8044C25.505 17.4442 25.6107 18.0586 25.869 18.6494C26.0217 18.9977 26.1744 19.1327 26.5815 18.9292C29.5604 17.4325 32.7175 16.5775 36.0526 16.4053C36.3971 16.3877 36.5224 16.2527 36.5145 15.9122C36.4989 15.2783 36.5028 14.6424 36.5145 14.0085C36.5263 13.1516 36.9353 12.6409 37.6028 12.6292C38.2721 12.6174 38.6949 13.1281 38.7066 13.9753C38.7145 14.6092 38.7243 15.2451 38.7027 15.879C38.691 16.2507 38.8241 16.3916 39.2018 16.4131C42.5076 16.6029 45.6432 17.454 48.6025 18.9312C49.0272 19.1425 49.2093 19.0368 49.3756 18.6475C49.6183 18.0781 49.7397 17.4873 49.7925 16.8768C49.8571 16.1294 50.3034 15.6794 50.9277 15.7127C51.5775 15.7479 52.016 16.284 51.9749 17.0509C51.922 18.0096 51.7322 18.9468 51.2507 19.7842C51.0217 20.1814 51.1059 20.3497 51.4621 20.5864C54.5584 22.6584 56.9209 25.3917 58.9212 28.526C60.3421 30.7526 60.5222 33.0828 60.1464 35.5461C60.0446 36.2152 60.2443 36.2798 60.804 36.1937C62.9629 35.865 64.8556 34.0826 65.3312 31.8404C66.7189 25.2958 65.4153 19.301 61.5674 13.854C59.5847 11.0463 57.0853 8.77674 54.1964 6.92781C54.0535 6.83586 53.9047 6.74977 53.7638 6.65194C53.0983 6.19607 52.9183 5.60324 53.2725 5.03975C53.6229 4.48018 54.2551 4.38236 54.9401 4.80497C57.7488 6.53455 60.2658 8.61826 62.2896 11.2263C62.9727 12.1068 63.6577 12.4335 64.7694 12.4316C69.2007 12.4218 72.847 14.9633 74.3443 18.9586C74.7593 20.0679 74.9785 21.2164 74.9824 22.3943C74.9961 27.3971 75.0255 32.4019 74.9765 37.4048C74.9432 40.6977 73.5947 43.4016 70.9681 45.4188C70.5688 45.726 70.4435 46.0312 70.4435 46.5105C70.4572 53.736 70.4533 60.9596 70.4533 68.1851C70.4533 72.2097 69.3886 73.7162 65.6385 74.9997H9.3772C9.26564 74.9567 9.15603 74.8999 9.0386 74.8725C6.60769 74.2973 4.99491 72.5579 4.62695 70.0908C4.48603 69.1457 4.56823 68.1909 4.56432 67.2401C4.55453 64.7024 4.55453 62.1648 4.56432 59.6272C4.56823 58.7604 5.06146 58.242 5.76998 58.3085C6.39043 58.3652 6.75252 58.827 6.75448 59.6154C6.76035 62.787 6.75057 65.9585 6.76035 69.1301C6.76623 71.3703 8.19306 72.7986 10.4165 72.8025C13.6381 72.8084 16.8598 72.8064 20.0814 72.7986C20.283 72.7986 20.512 72.8867 20.698 72.7125C18.9638 70.306 18.545 69.2142 18.6252 66.8703C18.8229 61.1533 21.0679 56.3989 25.4384 52.6854C25.8886 52.3039 25.8162 52.1728 25.368 51.8969C23.6143 50.813 22.0426 49.5001 20.7058 47.9271C20.4005 47.569 20.0912 47.4595 19.643 47.4614C16.5916 47.4771 13.5403 47.4653 10.4909 47.4732C9.73146 47.4732 8.98184 47.4125 8.23221 47.2971C7.75464 47.2247 7.14985 46.7962 6.86017 47.0623C6.53918 47.3577 6.76623 48.0327 6.76231 48.5414C6.75057 50.4197 6.75448 52.298 6.7584 54.1782C6.7584 54.7319 6.51765 55.1193 5.99898 55.3032C5.5312 55.4695 5.13192 55.3111 4.82072 54.9432C4.56823 54.6439 4.55844 54.2761 4.55844 53.9043C4.56236 51.441 4.54866 48.9758 4.57019 46.5125C4.5741 46.0351 4.45667 45.7221 4.0476 45.4208C2.17842 44.0355 0.968841 42.1866 0.369921 39.9424C0.22117 39.3829 0.12135 38.8077 0 38.2403C0 32.7248 0 27.2073 0 21.6919ZM26.6578 50.1086C26.7009 50.0362 26.7243 50.0167 26.7224 49.9991C26.695 49.7349 26.6715 49.4688 26.6343 49.2047C26.2546 46.5106 26.7106 43.9592 27.9633 41.5527C30.7896 36.1194 37.1565 33.9848 42.4333 36.6946C46.5024 38.7842 49.1016 43.5347 48.7082 48.1697C48.6554 48.8017 48.581 49.4317 48.5105 50.1204C48.6691 50.0499 48.7395 50.0284 48.7963 49.9893C54.9049 45.7475 58.0502 39.9288 58.1167 32.4724C58.1206 32.0243 58.0071 31.6115 57.8016 31.2104C53.8421 23.4547 47.5025 19.1014 38.8358 18.6299C29.6054 18.1251 22.6807 22.2279 17.9793 30.1363C17.4117 31.0911 17.0986 32.128 17.1338 33.2687C17.2963 38.5963 19.2339 43.1825 22.8686 47.0623C23.9842 48.2538 25.2447 49.279 26.6578 50.1125V50.1086ZM67.2747 71.7558C67.9696 70.981 68.2475 70.214 68.2475 69.361C68.2553 62.067 68.2494 54.773 68.2612 47.479C68.2612 47.0408 68.1516 46.9136 67.7229 47.0525C66.5956 47.4164 65.431 47.4829 64.2547 47.479C61.3756 47.4673 58.4964 47.4829 55.6154 47.4673C55.1437 47.4653 54.809 47.5769 54.4821 47.9525C53.1453 49.4884 51.6167 50.8149 49.8865 51.891C49.4109 52.1865 49.3365 52.3215 49.816 52.7284C52.9007 55.3384 54.9812 58.602 55.9912 62.5229C56.1047 62.9631 56.2632 63.1783 56.7662 63.1431C57.4454 63.0942 58.1324 63.1216 58.8155 63.1372C60.9763 63.1842 62.8611 63.9355 64.4543 65.3951C66.2746 67.062 67.1455 69.1692 67.2708 71.7577L67.2747 71.7558ZM53.3939 70.5916H52.562C49.0468 70.5916 45.5336 70.6053 42.0183 70.5877C38.3269 70.5681 35.2541 68.2888 34.2206 64.8551C33.835 63.5696 33.8546 62.2529 33.8801 60.9381C33.8898 60.4587 33.8018 60.1261 33.3262 59.8796C32.7429 59.5763 32.2203 59.142 31.8152 58.6215C30.6525 57.1267 29.486 55.63 28.4037 54.0765C28.0337 53.5463 27.8419 53.5423 27.3781 53.9121C23.307 57.1541 21.1814 61.3763 20.8076 66.5514C20.5257 70.4371 23.3481 73.006 26.8888 72.8377C30.0536 72.6871 33.2322 72.8064 36.4049 72.8064C40.6032 72.8064 44.7996 72.8123 48.9979 72.8025C50.7535 72.7986 52.1921 72.1216 53.3939 70.5916ZM18.6565 45.2936C17.4 43.3233 16.4703 41.3922 15.9007 39.3144C15.7226 38.6609 15.4466 38.4555 14.7792 38.4085C11.2855 38.1542 8.49644 35.6772 7.75855 32.265C6.4746 26.3249 7.30839 20.6862 10.1464 15.3253C10.256 15.1198 10.4615 14.9438 10.395 14.6366C10.256 14.6268 10.1131 14.6053 9.97221 14.6092C5.65646 14.7285 2.30564 18.0253 2.24106 22.3884C2.16668 27.4402 2.18038 32.4939 2.2391 37.5437C2.28411 41.4099 5.02427 44.6225 8.86636 45.1312C12.0567 45.5538 15.2901 45.1918 18.6565 45.2936ZM56.5842 45.276H57.4043C59.7961 45.276 62.1859 45.2779 64.5776 45.276C69.3846 45.2681 72.7824 41.8833 72.7903 37.082C72.7981 32.3256 72.7903 27.5713 72.7922 22.8149C72.7922 22.0069 72.71 21.2086 72.5065 20.426C71.6081 16.9688 68.1301 14.3607 64.8184 14.6679C64.791 14.9614 65.0004 15.1609 65.1217 15.3879C67.7386 20.3379 68.635 25.5678 67.7073 31.1028C66.9459 35.6459 64.6031 37.9076 60.0446 38.4516C59.6923 38.4946 59.5455 38.6198 59.4575 38.9564C59.1874 39.9698 58.8155 40.9481 58.3966 41.9088C57.9034 43.0416 57.2829 44.1099 56.5881 45.276H56.5842ZM29.7463 51.938C30.22 49.8504 31.1399 48.199 32.7272 46.9723C34.3165 45.7436 36.1231 45.1762 38.1253 45.2936C41.7247 45.5068 44.3494 47.8586 45.4807 51.8539C45.7214 51.7169 45.7547 51.4547 45.835 51.2356C46.8978 48.3419 46.7901 45.4892 45.4142 42.7266C43.5724 39.0307 39.6442 37.0722 35.9019 37.8979C29.762 39.2537 27.1021 46.581 29.7444 51.9399L29.7463 51.938ZM31.8837 53.1334C31.8249 56.2893 34.3146 58.868 37.4971 58.9522C40.6365 59.0344 43.2925 56.5085 43.361 53.3741C43.4295 50.183 40.8968 47.524 37.7378 47.4732C34.5318 47.4223 31.9424 49.9247 31.8837 53.1334ZM37.6125 61.1533C37.272 61.1298 36.9275 61.1278 36.5909 61.0809C36.219 61.0281 36.0859 61.1357 36.0604 61.5368C35.7982 65.6748 38.3387 68.3983 42.4881 68.3983C47.7629 68.3983 53.0357 68.3983 58.3105 68.4023C58.6746 68.4023 59.0503 68.4003 59.4007 68.4805C60.9234 68.8249 61.9353 70.1142 61.9725 71.7108C61.998 72.7888 62.0136 72.8025 63.1077 72.8045C63.4992 72.8045 63.8887 72.7927 64.2801 72.8064C64.7929 72.824 65.0493 72.6147 65.0532 72.0786C65.0552 71.3918 65.0063 70.7149 64.8262 70.0497C64.0648 67.2479 61.6202 65.3422 58.6765 65.3305C53.159 65.309 47.6396 65.3285 42.1221 65.3207C40.3801 65.3188 39.2292 64.2329 39.1412 62.5659C39.1157 62.0866 39.3604 61.4644 39.0237 61.1631C38.6929 60.8676 38.096 61.1885 37.6125 61.1552V61.1533ZM53.891 63.0903C52.8321 59.1889 50.7144 56.078 47.5241 53.6813C47.2148 53.4484 47.1287 53.6284 46.9937 53.8554C46.0542 55.4245 44.6782 56.6689 43.7368 58.242C43.4706 58.688 43.0576 59.1381 42.6016 59.3591C41.3763 59.95 41.2256 60.9224 41.3274 62.1081C41.4057 63.0022 41.4605 63.1274 42.3471 63.1274C45.9818 63.1294 49.6144 63.1274 53.249 63.1274C53.4389 63.1274 53.6288 63.1079 53.893 63.0922L53.891 63.0903ZM54.4508 72.8025C56.2045 72.8025 57.8075 72.8025 59.4105 72.8006C59.5475 72.8006 59.6923 72.826 59.7765 72.6499C60.2071 71.7382 59.524 70.6151 58.5062 70.5936C57.7997 70.5779 57.0931 70.5936 56.3846 70.5877C56.1321 70.5877 55.9187 70.5955 55.7856 70.8831C55.4784 71.5484 55.0145 72.1158 54.4508 72.8025Z" fill="#B7CA39"/>
<path d="M46.4613 34.4169C45.3515 34.3602 44.3925 33.9963 43.6291 33.1941C43.1163 32.6541 43.0831 32.028 43.5332 31.5721C43.9756 31.1241 44.5451 31.126 45.1069 31.5799C46.1599 32.431 46.7333 32.4271 47.8137 31.5682C48.3755 31.1221 48.949 31.128 49.3854 31.5877C49.8043 32.0319 49.7867 32.6521 49.313 33.1608C48.5399 33.9943 47.5613 34.366 46.4613 34.4189V34.4169Z" fill="#B7CA39"/>
<path d="M28.799 34.4149C27.6873 34.3719 26.7087 33.9923 25.9317 33.1686C25.4482 32.658 25.4228 32.0475 25.8416 31.5956C26.2703 31.1319 26.8535 31.1182 27.4113 31.5584C28.5231 32.4388 29.0319 32.4369 30.1769 31.5427C30.7093 31.128 31.2613 31.1338 31.6919 31.5623C32.1283 31.9947 32.1342 32.6325 31.6703 33.1373C30.905 33.9728 29.9284 34.3582 28.801 34.4149H28.799Z" fill="#B7CA39"/>
</svg>
