<svg width="73" height="73" viewBox="0 0 73 73" fill="none" xmlns="http://www.w3.org/2000/svg">
<path d="M0 63.0087C0 60.2052 0 57.4016 0 54.5981C0.0285677 54.56 0.070467 54.5276 0.0818941 54.4857C0.996061 51.0252 3.07388 49.4234 6.66008 49.4177C7.72852 49.4177 8.79885 49.4196 9.86728 49.4158C10.1168 49.4158 10.4196 49.4844 10.3548 49.0368C10.1244 47.4179 10.0044 45.7705 8.96454 44.3916C8.79504 44.1668 8.65792 43.9097 8.53984 43.6526C8.29416 43.1174 8.45033 42.6565 8.92074 42.3499C9.42353 42.0204 9.97775 42.0718 10.3129 42.5708C10.9986 43.5916 11.7166 44.6068 11.9851 45.8447C12.4327 47.9131 12.5907 50.0234 12.8993 52.1127C13.0231 52.9488 13.4706 53.3678 14.1182 53.3125C14.7714 53.2573 15.1333 52.7716 15.1142 51.9241C15.0799 50.309 15.0152 48.694 14.9923 47.0789C14.9638 44.9763 16.0741 43.3859 18.0396 42.6489C21.1744 41.4719 25.3072 43.3974 24.9567 47.4789C24.8291 48.9682 24.8501 50.469 24.8177 51.966C24.8006 52.785 25.2024 53.2821 25.8652 53.3144C26.4994 53.3449 26.9412 52.9259 27.0517 52.1469C27.1717 51.3013 27.2936 50.4538 27.366 49.6024C27.5926 46.9684 28.1792 44.4868 29.7428 42.2546C30.9598 40.5177 31.7121 38.5255 32.1444 36.4343C32.4758 34.8402 32.6624 33.2327 32.6376 31.5129C32.491 31.6272 32.4282 31.6596 32.3901 31.7091C30.3218 34.3907 27.903 36.7409 25.4348 39.0435C24.6025 39.8206 23.7531 40.5862 22.8142 41.2376C22.0105 41.7937 21.3877 41.7271 20.7135 41.0529C19.826 40.1653 19.7193 39.2264 20.4278 38.1636C21.2715 36.9009 22.1704 35.6725 22.9989 34.4002C24.9529 31.3967 26.9584 28.4237 28.5639 25.2088C28.7543 24.826 28.762 24.6489 28.3049 24.5174C27.2212 24.2051 26.1299 24.047 25.0005 24.1518C23.7817 24.2641 22.6428 24.6831 21.4962 25.0602C20.4621 25.3993 19.4584 25.3974 18.4262 25.0545C17.3025 24.6812 16.1807 24.306 14.9923 24.1537C11.0081 23.6432 7.82755 26.0639 7.3838 30.0521C7.07527 32.8251 7.45998 35.5449 8.2713 38.2074C8.51318 39.0016 8.2713 39.5921 7.64472 39.7749C6.99147 39.9673 6.50582 39.6454 6.23919 38.834C5.36311 36.1619 5.04315 33.4079 5.17456 30.6159C5.30217 27.9285 6.17634 25.5269 8.41795 23.847C10.8081 22.0548 13.5278 21.6016 16.3902 22.2586C17.3482 22.4777 17.8034 22.2834 18.3728 21.5101C21.0449 17.8743 24.3302 14.8061 27.6764 11.8064C27.9906 11.5245 28.1944 11.2236 28.3011 10.8122C29.1238 7.64492 29.9694 4.48334 30.7922 1.31605C30.935 0.767539 31.1064 0.272353 31.6492 0H37.0656C37.8446 0.559942 37.9246 0.815153 37.6541 1.74648C37.0371 3.86436 36.4314 5.98414 35.8087 8.10011C35.6925 8.49626 35.7515 8.73052 36.142 8.95335C37.1247 9.5152 37.9531 10.2808 38.5454 11.2407C38.8692 11.7664 39.113 11.675 39.5396 11.4064C42.4135 9.59519 45.2379 7.71348 47.9995 5.73464C50.5801 3.88721 53.1569 2.03217 55.6004 0H69.429C70.4822 0.80563 70.4041 1.58841 69.2119 2.19787C67.0351 3.31013 64.8544 4.40906 62.6871 5.53847C61.1939 6.31744 59.7217 7.1364 58.24 7.94012C57.7772 8.19153 57.3354 8.20676 56.9202 7.85061C56.5755 7.5535 56.505 7.16497 56.6117 6.74787C56.7145 6.3441 57.0497 6.15174 57.3906 5.9689C59.5046 4.8395 61.6167 3.71009 63.725 2.57116C63.9155 2.46831 64.1669 2.42832 64.2964 2.14073C62.8261 2.14073 61.4034 2.13692 59.9807 2.14073C58.7942 2.14454 57.5201 1.89314 56.4441 2.24167C55.4213 2.57306 54.6024 3.53868 53.6939 4.22432C53.6559 4.25289 53.6159 4.27765 53.5778 4.30622C49.2869 7.53255 44.8837 10.5951 40.3262 13.4386C40.1319 13.5605 39.7796 13.5967 39.85 13.9662C39.9872 14.6709 40.1357 15.3736 40.29 16.1202C40.5376 15.9698 40.7414 15.8498 40.9394 15.726C44.6342 13.3986 48.3708 11.136 52.1494 8.94573C52.3551 8.82765 52.5531 8.67909 52.776 8.61053C53.3168 8.44293 53.7739 8.59529 54.0539 9.1C54.3167 9.57233 54.2291 10.0256 53.8368 10.3913C53.6654 10.5513 53.4483 10.6636 53.2445 10.7817C49.0584 13.2177 44.9218 15.7298 40.829 18.32C40.3205 18.6419 39.9719 18.9847 39.8577 19.6132C39.7415 20.2646 39.4501 20.8759 39.0978 21.4454C37.8712 23.4223 36.6924 25.4297 35.3916 27.3571C34.784 28.2561 34.4241 29.0998 34.7459 30.1721C34.8183 30.414 34.784 30.692 34.7897 30.953C34.9002 35.6039 33.887 39.9673 31.2912 43.8716C30.2684 45.4086 29.7904 47.0656 29.6247 48.8673C29.5828 49.3263 29.6971 49.4386 30.1389 49.4348C32.9424 49.4196 35.7458 49.4177 38.5493 49.4348C39.0787 49.4386 39.1435 49.2996 38.9435 48.8216C37.5551 45.5153 37.1342 42.047 37.3646 38.4969C37.6522 34.0441 41.0004 30.7968 45.4455 30.4902C47.4205 30.3549 49.264 30.8063 51.0867 31.4386C51.799 31.6862 52.4579 31.671 53.1645 31.4386C54.5814 30.972 55.9984 30.5187 57.522 30.4673C62.868 30.2883 66.6389 33.6917 66.8846 39.0283C67.0408 42.4108 66.5913 45.7114 65.2658 48.854C65.081 49.292 65.1267 49.4577 65.6295 49.4348C66.1038 49.412 66.5799 49.4253 67.0541 49.4444C70.467 49.5872 72.96 52.1565 72.9886 55.5732C73.0057 57.6645 73.0057 59.7557 72.9886 61.845C72.9371 68.0062 67.9759 72.9848 61.8053 72.9924C44.937 73.0133 28.0706 73.0095 11.2023 72.9924C6.08111 72.9886 1.68359 69.5527 0.369476 64.6028C0.228542 64.0695 0.121889 63.5381 0 63.0087ZM36.5 70.8497C44.9351 70.8497 53.3702 70.865 61.8034 70.844C66.3075 70.8326 70.128 67.5549 70.7165 63.0906C71.0707 60.4032 70.926 57.6778 70.7869 54.979C70.6879 53.0611 69.0272 51.6651 67.0941 51.5794C66.1685 51.5375 65.241 51.5622 64.3154 51.5584C64.1288 51.5584 63.9174 51.5299 63.8069 51.7318C63.2241 52.785 62.4014 53.7182 62.1462 54.9352C61.7424 56.8664 61.5672 58.832 61.3158 60.786C61.0587 62.7801 59.6589 64.0371 57.7677 63.8962C55.9641 63.7629 54.7624 62.2754 54.8233 60.2813C54.8728 58.691 54.8976 57.0988 54.9338 55.5066C54.9433 55.0266 54.8995 54.5619 54.631 54.1372C53.9949 53.1316 52.4751 52.6536 51.1305 53.0478C49.8373 53.4268 49.2583 54.2305 49.285 55.6361C49.3155 57.2512 49.365 58.8662 49.3936 60.4813C49.4259 62.3287 48.1861 63.7591 46.4549 63.8924C44.6189 64.0333 43.1448 62.7992 42.9163 60.9346C42.8173 60.1328 42.7087 59.3329 42.6173 58.531C42.3583 56.2379 42.1145 53.9429 40.608 52.0308C40.4138 51.7851 40.2938 51.5413 39.9053 51.5451C37.9093 51.5641 35.9134 51.5546 33.9175 51.5527C33.6737 51.5527 33.4737 51.5584 33.3766 51.8727C32.8281 53.6611 31.8377 55.2323 30.8607 56.8036C30.297 57.7102 29.937 58.6663 29.8075 59.7195C29.6609 60.8984 29.5085 62.0754 29.3505 63.2505C29.259 63.9324 29.2038 64.6256 29.0419 65.2922C28.6744 66.8026 27.1012 67.8653 25.5929 67.6768C23.9397 67.4691 22.6847 66.1074 22.6847 64.418C22.6847 62.6849 22.7608 60.9498 22.8085 59.2167C22.8218 58.7539 22.7456 58.3177 22.5056 57.9178C21.9114 56.9312 20.3878 56.4284 19.0775 56.7865C17.7386 57.1502 17.1006 57.9844 17.1273 59.3805C17.1597 61.0908 17.2435 62.8011 17.2454 64.5114C17.2454 66.2064 15.897 67.5777 14.2001 67.6901C12.5774 67.7967 11.0766 66.5835 10.8272 64.9342C10.6653 63.8543 10.5072 62.7725 10.4063 61.685C10.2082 59.5538 9.73397 57.5483 8.45985 55.7485C7.62758 54.5734 6.96861 53.2649 6.56105 51.8632C6.46201 51.5241 6.25633 51.5641 6.02207 51.5622C3.93663 51.5451 2.17686 53.2649 2.14258 55.4095C2.11211 57.4054 2.13305 59.4014 2.13496 61.3974C2.13877 66.9187 6.07921 70.8459 11.6194 70.8459C19.9117 70.8459 28.2039 70.8459 36.4962 70.8459L36.5 70.8497ZM57.0649 57.6873H56.9545C56.9545 58.6377 56.9469 59.5862 56.9564 60.5365C56.964 61.2755 57.3411 61.7212 57.9715 61.7631C58.6057 61.805 59.059 61.4107 59.1599 60.7022C59.2685 59.9499 59.3846 59.1995 59.4475 58.4434C59.6836 55.5942 60.3712 52.945 61.9938 50.49C64.3573 46.917 64.9858 42.8451 64.7154 38.6245C64.5192 35.5639 62.5899 33.406 59.6017 32.7623C57.6363 32.3376 55.7775 32.7547 53.9549 33.4175C52.7131 33.8708 51.519 33.8708 50.2734 33.4289C48.9784 32.9699 47.6643 32.5852 46.2549 32.589C42.5106 32.5966 39.7948 34.9449 39.4977 38.5312C39.332 40.5272 39.4748 42.5156 39.8367 44.4887C40.33 47.176 41.5146 49.5663 42.9734 51.8365C43.7314 53.0154 44.2114 54.2743 44.3714 55.6742C44.558 57.3007 44.8075 58.9196 45.0284 60.5423C45.1484 61.4184 45.5769 61.8374 46.2816 61.7631C46.9405 61.6926 47.2643 61.2203 47.2453 60.3518C47.2129 58.8567 47.2376 57.3559 47.1329 55.8646C46.9082 52.6345 49.3059 51.0252 51.5933 50.789C54.0729 50.5338 57.3297 52.185 57.0687 55.7713C57.023 56.4094 57.063 57.0531 57.063 57.6949L57.0649 57.6873ZM23.176 38.1122C25.7947 35.8077 28.3449 33.4289 30.4894 30.6635C33.0395 27.3743 35.203 23.8223 37.2942 20.2341C38.8883 17.4991 38.4083 12.1797 34.1841 10.3075C33.3804 9.95134 33.2204 9.57805 33.4566 8.71338C34.0013 6.72311 34.5364 4.73093 35.1249 2.754C35.2887 2.20358 35.1516 2.08931 34.6393 2.1274C34.2146 2.15977 33.7804 2.1693 33.3576 2.12359C32.9043 2.07597 32.7519 2.27786 32.6472 2.68353C31.9025 5.5518 31.1464 8.41817 30.3675 11.2769C30.2303 11.7816 30.2284 12.2349 30.4075 12.7263C31.1807 14.8423 32.0111 16.9354 32.889 19.0094C33.0833 19.4684 33.1214 19.8989 32.9424 20.3826C31.8739 23.2814 30.6284 26.1001 29.0686 28.7684C27.2117 31.9433 25.1929 35.0173 23.1722 38.1103L23.176 38.1122ZM31.1826 51.627C29.4381 51.3718 29.3562 51.4118 29.1352 52.6117C28.8001 54.4438 27.3869 55.5866 25.6271 55.4475C23.9493 55.3161 22.7208 53.9429 22.6885 52.1012C22.6808 51.646 22.5361 51.5432 22.1171 51.5489C20.7402 51.5699 19.3613 51.5889 17.9843 51.5413C17.3863 51.5203 17.2397 51.6975 17.2397 52.286C17.2397 53.962 15.9084 55.3447 14.2743 55.4495C12.5698 55.5599 11.1014 54.3905 10.8272 52.7088C10.7015 51.9355 10.2463 51.5514 9.46162 51.5565C9.39116 51.5565 9.31878 51.5622 9.24832 51.5565C8.78362 51.5089 8.7341 51.6803 8.91312 52.0822C9.4959 53.3868 10.2139 54.6153 10.9814 55.8151C11.7147 56.9617 12.1013 58.2092 12.2651 59.5481C12.4612 61.1498 12.6726 62.7496 12.9012 64.3476C13.0193 65.1761 13.4916 65.6141 14.1239 65.5494C14.7733 65.4827 15.1333 64.9913 15.1161 64.1495C15.0818 62.5116 15.0266 60.8717 14.9904 59.2338C14.9714 58.3615 15.1656 57.5388 15.6322 56.7903C16.7807 54.9562 19.2927 54.0915 21.5458 54.7543C23.7512 55.4037 24.9777 57.0702 24.9453 59.4243C24.9225 61.0393 24.8482 62.6525 24.8234 64.2676C24.812 65.0066 25.271 65.5246 25.8861 65.5513C26.4689 65.5779 26.9336 65.1418 27.046 64.4295C27.1241 63.9381 27.1907 63.4429 27.2288 62.9458C27.4783 59.689 28.0897 56.5598 30.1142 53.8572C30.6036 53.204 30.9388 52.4288 31.1826 51.627ZM19.8488 23.1195C20.1079 23.2566 20.3135 23.1538 20.5078 23.0985C21.4867 22.8186 22.4618 22.5234 23.4408 22.2434C23.6122 22.1939 23.7321 22.0948 23.8502 21.9787C25.5852 20.2855 27.4345 18.7295 29.379 17.2858C29.6571 17.0801 29.7123 16.8897 29.579 16.5678C29.2781 15.846 28.9981 15.1165 28.7505 14.3756C28.5963 13.9147 28.4458 13.9719 28.1392 14.2518C25.9166 16.2897 23.755 18.3867 21.7743 20.6626C21.0963 21.4416 20.3935 22.211 19.8488 23.1214V23.1195ZM19.9574 49.4177C20.6925 49.4177 21.4296 49.3968 22.1628 49.4253C22.6123 49.4425 22.8161 49.313 22.7913 48.8311C22.7646 48.2864 22.8008 47.7398 22.8065 47.1951C22.8199 45.6981 22.1476 44.8448 20.7002 44.5211C18.6395 44.0583 17.093 45.2924 17.133 47.3684C17.1425 47.8902 17.1749 48.4121 17.1711 48.9339C17.1673 49.3015 17.3177 49.4329 17.6815 49.4253C18.4395 49.4063 19.1994 49.4196 19.9593 49.4196L19.9574 49.4177ZM30.5274 19.0875C29.3162 20.0017 28.1278 20.9388 26.9527 22.0377C27.8078 22.1767 28.5334 22.3043 29.2114 22.5843C29.5847 22.7386 29.7675 22.6662 29.9028 22.291C30.1446 21.6244 30.3941 20.9597 30.6855 20.316C30.8836 19.8779 30.8645 19.5008 30.5274 19.0875Z" fill="#B7CA39"/>
</svg>
