<svg width="68" height="68" viewBox="0 0 68 68" fill="none" xmlns="http://www.w3.org/2000/svg">
<path d="M0 38.7787C0.299857 38.4523 0.652942 38.2305 1.07877 38.0743C6.0131 36.2628 10.9208 36.3746 15.7788 38.3245C16.7174 38.7007 17.649 38.5428 18.5876 38.5942C18.859 38.6102 18.8945 38.3777 18.9602 38.1985C19.1234 37.7638 19.2618 37.3203 19.4286 36.8873C19.9289 35.5921 20.8817 34.9196 22.2745 34.9125C24.5102 34.9001 26.7458 34.8895 28.9814 34.9232C29.5527 34.9321 29.6769 34.7458 29.6716 34.2099C29.645 31.8856 29.6556 29.5613 29.661 27.2369C29.6645 25.4999 30.5339 24.634 32.2798 24.6252C33.4757 24.6198 34.6698 24.611 35.8657 24.6269C37.4377 24.6482 38.3249 25.5407 38.3337 27.1198C38.3461 29.5098 38.3515 31.9016 38.3266 34.2915C38.3213 34.7972 38.4757 34.925 38.9672 34.9196C41.1584 34.8948 43.3497 34.9054 45.5409 34.9108C47.1857 34.9143 48.0658 35.5406 48.6371 37.0932C49.1924 38.6031 49.1924 38.5924 50.823 38.6084C51.3003 38.6137 51.7297 38.5055 52.1679 38.3281C57.0792 36.3426 62.0224 36.2787 66.9922 38.1045C67.0135 38.1116 67.0348 38.1169 67.0561 38.124C67.8403 38.4327 68.1508 38.9242 67.9308 39.5026C67.7001 40.1112 67.1679 40.2833 66.3747 39.9924C65.3971 39.6339 64.4053 39.3394 63.3833 39.1354C59.9287 38.4505 56.5647 38.7699 53.2751 40.0101C52.8723 40.1609 52.702 40.3579 52.6736 40.8121C52.4039 45.1875 51.9674 49.5434 51.0022 53.8283C50.4965 56.0764 49.8791 58.2889 48.7134 60.3028C48.4596 60.741 48.1633 61.1615 47.8351 61.5465C46.1531 63.5107 43.8624 63.7165 41.8468 62.0877C40.4735 60.977 39.5615 59.5132 38.7897 57.9589C37.1662 54.6924 36.1691 51.2112 35.3369 47.6768C35.0531 46.4668 34.7354 46.0959 33.9707 46.1155C33.2308 46.1332 32.9487 46.481 32.6648 47.6715C31.7511 51.5058 30.6794 55.2868 28.7774 58.7751C28.1705 59.8876 27.452 60.922 26.5098 61.7825C24.221 63.8691 21.5932 63.6012 19.7905 61.0888C18.678 59.538 18.0446 57.7691 17.5354 55.9539C16.4194 51.9777 15.8959 47.9004 15.5411 43.7965C15.4524 42.7816 15.3619 41.7684 15.3211 40.7518C15.3051 40.349 15.1401 40.1822 14.7852 40.0491C10.4737 38.4274 6.14795 38.3281 1.81688 39.9409C1.08942 40.2124 0.502127 40.2124 0 39.5754V38.7787ZM34.047 36.9033C30.2624 36.9033 26.4761 36.9033 22.6915 36.9033C21.5932 36.9033 21.5187 36.9867 21.123 38.03C20.9296 38.541 21.084 38.6208 21.5577 38.6102C22.5744 38.5871 23.5946 38.5924 24.6113 38.6226C25.1809 38.6403 25.5073 38.9863 25.5304 39.5559C25.5535 40.1307 25.2341 40.4661 24.6823 40.5655C24.4676 40.6045 24.2422 40.5921 24.0205 40.5921C21.9836 40.5921 19.9467 40.608 17.9115 40.5832C17.4005 40.5761 17.2994 40.7163 17.3349 41.2237C17.5265 43.9615 17.7785 46.6921 18.199 49.405C18.6337 52.2049 19.1589 54.9834 20.2022 57.6342C20.6156 58.6864 21.1035 59.7066 21.9268 60.5157C22.7057 61.2804 23.5059 61.3797 24.4605 60.8404C25.1099 60.4749 25.6031 59.9355 26.0467 59.3517C26.8806 58.2517 27.4963 57.0274 28.0392 55.7659C29.283 52.872 30.1365 49.8539 30.8196 46.7861C31.0538 45.7304 31.5612 44.9018 32.569 44.4352C34.535 43.5232 36.6641 44.5523 37.1538 46.6886C37.7642 49.3411 38.4615 51.9671 39.4498 54.5043C40.2216 56.4862 41.0537 58.4504 42.537 60.0295C44.1002 61.6938 45.5072 61.5625 46.7616 59.6711C47.0171 59.2861 47.2354 58.8727 47.4377 58.4557C48.0196 57.2581 48.4153 55.9912 48.7418 54.7048C49.8294 50.4217 50.3333 46.0551 50.619 41.6566C50.6882 40.5956 50.6793 40.5938 49.5934 40.5938C42.9966 40.5938 36.4015 40.5938 29.8047 40.5921C29.5403 40.5921 29.2671 40.5992 29.0133 40.5406C28.4881 40.42 28.2291 40.058 28.2646 39.5204C28.2965 39.0147 28.584 38.7024 29.0879 38.6315C29.3487 38.5942 29.6184 38.6031 29.8827 38.6031C35.3281 38.6031 40.7734 38.6031 46.2187 38.6031C46.3961 38.6031 46.5736 38.6031 46.7492 38.5995C46.8947 38.5978 46.9905 38.5676 46.9888 38.376C46.9781 37.5296 46.3465 36.9068 45.47 36.9051C41.6623 36.9051 37.8547 36.9051 34.0488 36.9051L34.047 36.9033ZM34.0665 30.0102C33.4047 30.0102 32.7429 30.035 32.0846 30.0031C31.5701 29.9782 31.6269 30.3171 31.6641 30.6116C31.7032 30.9221 31.4157 31.4331 32.0846 31.4314C33.3621 31.4314 34.6396 31.4314 35.9189 31.4314C36.5878 31.4314 36.3022 30.9239 36.3394 30.6116C36.3749 30.3189 36.4352 29.9764 35.9189 30.0031C35.3032 30.035 34.6858 30.0102 34.0683 30.0102H34.0665ZM33.9761 34.9108C34.6148 34.9108 35.2535 34.8895 35.8905 34.9179C36.508 34.9445 36.343 34.5062 36.3376 34.1957C36.3323 33.871 36.5364 33.4062 35.8745 33.4186C34.6201 33.4434 33.3657 33.4381 32.1095 33.4204C31.4423 33.4115 31.6819 33.8959 31.6624 34.2135C31.6428 34.5364 31.5222 34.9533 32.1272 34.9196C32.7411 34.8859 33.3604 34.9125 33.9761 34.9125V34.9108ZM33.9512 28.0158C34.59 28.0158 35.2305 28.0052 35.8692 28.0212C36.1851 28.0283 36.4104 27.9626 36.3412 27.5953C36.2773 27.2529 36.5896 26.6709 35.9668 26.6443C34.6467 26.5875 33.3196 26.5787 32.003 26.6532C31.4069 26.6869 31.728 27.2831 31.6624 27.629C31.5985 27.9644 31.8132 28.0283 32.1006 28.0212C32.7181 28.0087 33.3355 28.0176 33.9512 28.0176V28.0158Z" fill="#B7CA39"/>
<path d="M0 66.1384C0.319374 65.6079 0.787789 65.4642 1.39815 65.4642C23.1315 65.4766 44.8649 65.4748 66.6001 65.4748C66.7775 65.4748 66.9585 65.4589 67.1306 65.4908C67.6505 65.5866 67.9734 65.9042 67.9876 66.4347C68.0035 66.999 67.6789 67.3414 67.1324 67.4479C66.9407 67.4851 66.7349 67.4656 66.5362 67.4656C44.8472 67.4656 23.1581 67.4656 1.46735 67.4745C0.846341 67.4745 0.333568 67.368 0.0017743 66.802V66.1384H0Z" fill="#B7CA39"/>
<path d="M30.6688 3.42761C28.6993 2.77289 26.7706 1.98865 24.645 1.98865C17.1788 1.9851 11.8488 9.29699 14.166 16.3995C14.4197 17.1766 14.7107 17.9414 14.9928 18.7079C15.463 19.9889 16.1266 20.4591 17.4822 20.4591C25.5605 20.4591 33.6389 20.4591 41.7173 20.4591C42.7801 20.4591 43.2822 20.7856 43.2769 21.4687C43.2716 22.1482 42.789 22.4499 41.7013 22.4499C33.6673 22.4499 25.6333 22.4499 17.5975 22.4499C15.2519 22.4499 13.9105 21.4846 13.073 19.3005C12.1628 16.9282 11.4957 14.5418 11.6607 11.9442C12.0351 6.10857 16.9729 0.8531 22.7802 0.116766C25.3884 -0.215028 27.8316 0.317262 30.2624 1.13521C31.3306 1.49362 32.4182 1.79525 33.4863 2.14834C33.843 2.26544 34.157 2.25125 34.5154 2.14834C36.7014 1.51669 38.8217 0.665024 41.0626 0.228547C48.0941 -1.14476 55.1204 3.8286 56.1832 10.9134C56.5079 13.0745 56.3659 15.193 55.6456 17.2618C55.3475 18.117 55.0707 18.9829 54.7123 19.8133C53.9848 21.4953 52.6807 22.3966 50.8408 22.4463C49.6023 22.48 48.3621 22.4587 47.1218 22.4516C46.405 22.4463 45.9561 22.0542 45.9579 21.4634C45.9597 20.8725 46.4068 20.4733 47.1254 20.4662C48.3425 20.4538 49.5597 20.4662 50.7769 20.4591C51.6765 20.4556 52.4163 20.0759 52.7641 19.2597C53.7098 17.0365 54.4852 14.7813 54.3468 12.2814C54.0664 7.22106 49.9483 2.76757 44.927 2.10043C42.8156 1.82009 40.8444 2.28673 38.8625 2.85983C35.8692 3.72569 32.9753 4.8985 29.9857 5.76968C28.4544 6.21503 26.8984 6.56102 25.2802 6.39246C24.464 6.30729 24.0595 5.89388 24.1411 5.23917C24.2174 4.62348 24.6876 4.34315 25.4825 4.41057C27.2905 4.56493 28.9637 3.98829 30.667 3.42938L30.6688 3.42761Z" fill="#B7CA39"/>
<path d="M59.4372 48.7237C58.8961 48.7272 58.4277 48.2464 58.4436 47.7017C58.4578 47.1783 58.9014 46.7471 59.4266 46.7453C59.9536 46.7436 60.4007 47.1676 60.4202 47.691C60.4415 48.2322 59.9766 48.7201 59.4372 48.7237Z" fill="#B7CA39"/>
<path d="M6.8896 56.5324C6.8967 57.054 6.46909 57.4976 5.94213 57.5189C5.37613 57.5402 4.92013 57.1126 4.91481 56.5537C4.90948 56.0019 5.37435 55.5388 5.92084 55.553C6.43538 55.5654 6.88428 56.0178 6.89138 56.5324H6.8896Z" fill="#B7CA39"/>
<path d="M10.1632 60.3187C10.1738 60.8617 9.70541 61.3389 9.16603 61.3318C8.64793 61.3248 8.215 60.8865 8.20436 60.3595C8.19549 59.8166 8.59115 59.3854 9.12522 59.3588C9.6859 59.3304 10.1508 59.7598 10.1614 60.3169L10.1632 60.3187Z" fill="#B7CA39"/>
</svg>
