<svg width="55" height="55" viewBox="0 0 55 55" fill="none" xmlns="http://www.w3.org/2000/svg">
<path d="M0 29.1074C0 28.034 0 26.9591 0 25.8857C0.0309104 25.7312 0.080086 25.578 0.0913261 25.4221C0.358279 21.5864 1.37411 17.9531 3.23014 14.5923C7.50701 6.84797 14.0052 2.11453 22.7037 0.4215C23.7574 0.21637 24.8309 0.18827 25.886 0C26.9595 0 28.0343 0 29.1077 0C29.2454 0.03091 29.3831 0.07868 29.5222 0.088515C33.3593 0.349845 37.0082 1.33756 40.3591 3.21464C49.3962 8.27545 54.3124 16.0086 54.9488 26.3508C55.2551 31.3104 54.1859 36.0565 51.7552 40.398C46.707 49.4139 38.971 54.3117 28.6497 54.9496C23.69 55.2558 18.9593 54.1642 14.5981 51.7644C6.84384 47.4974 2.11455 40.9881 0.421505 32.2855C0.216373 31.2332 0.184057 30.1611 0 29.1074ZM27.4751 51.5551C40.7146 51.5733 51.515 40.8054 51.5557 27.545C51.5965 14.2945 40.7905 3.4563 27.5187 3.43804C14.2792 3.41977 3.47882 14.1877 3.43808 27.4481C3.39733 40.6986 14.2033 51.5368 27.4751 51.5551Z" fill="#FF7676"/>
<path d="M30.4186 22.5193C30.2683 25.6103 30.1109 28.6999 29.9775 31.7923C29.9606 32.1689 29.8145 32.2237 29.4927 32.2209C28.1875 32.2068 26.8808 32.197 25.5755 32.2265C25.1611 32.2363 25.0641 32.086 25.0472 31.7123C24.9517 29.5682 24.8337 27.4242 24.7269 25.2816C24.5302 21.3153 24.3433 17.3489 24.1298 13.384C24.1073 12.9667 24.2113 12.8782 24.6117 12.8824C26.5436 12.9035 28.4755 12.9007 30.4074 12.8824C30.7811 12.8796 30.8851 12.9653 30.8654 13.3559C30.7038 16.4104 30.5662 19.4663 30.4228 22.5207H30.4186V22.5193Z" fill="#FF7676"/>
<path d="M23.6914 38.2286C23.6858 35.9638 25.2763 34.3551 27.5187 34.3551C29.7231 34.3551 31.2757 35.9399 31.3024 38.216C31.3291 40.4485 29.7456 42.0812 27.5383 42.098C25.324 42.1149 23.697 40.4781 23.6928 38.2286H23.6914Z" fill="#FF7676"/>
</svg>
