<svg width="1913" height="60" viewBox="0 0 1913 60" fill="none" xmlns="http://www.w3.org/2000/svg">
<path fill-rule="evenodd" clip-rule="evenodd" d="M1996.22 -164.858C1984.59 5.46118 1882.71 237.941 1392.8 166.723C1211.91 140.429 1057.77 102.035 921.692 68.1416C538.024 -27.4225 297.735 -87.2012 5.25338 259.93L5.31655 261.765C297.759 -85.9387 537.845 -26.2137 921.397 69.3179C1057.49 103.216 1211.65 141.614 1392.62 167.922C1878.76 238.587 1983.7 10.8562 1997.06 -159.445L1997.17 -158.431C1988.01 12.4571 1890.43 252.94 1393.27 180.672C1212.38 154.378 1058.25 115.984 922.169 82.0903C538.502 -13.4738 298.212 -73.2525 5.73133 273.879L5.79449 275.714C298.239 -71.9876 538.325 -12.2626 921.877 83.269C1057.97 117.167 1212.13 155.565 1393.1 181.873C1884.86 253.358 1986.56 19.5017 1997.98 -151.374L1997.98 -151.299C1991.04 19.921 1897.55 267.858 1393.75 194.623C1212.86 168.329 1058.73 129.935 922.65 96.0413C538.982 0.477278 298.693 -59.3015 6.21168 287.83L6.27484 289.665C298.719 -58.0366 538.806 1.68843 922.358 97.22C1058.45 131.118 1212.61 169.516 1393.58 195.822C1885.74 267.368 1987.22 33.0605 1998.49 -137.849C1991.7 33.3871 1898.52 281.884 1394.24 208.576C1213.35 182.282 1059.21 143.888 923.133 109.995C539.465 14.4307 299.176 -45.3481 6.69443 301.783L6.75759 303.618C299.202 -44.0856 539.288 15.6394 922.84 111.171C1058.94 145.069 1213.09 183.467 1394.06 209.772C1886.23 281.319 1987.7 46.9969 1998.97 -123.913C1992.19 47.3209 1899.02 295.832 1394.72 222.525C1213.83 196.231 1059.69 157.837 923.613 123.943C539.945 28.3792 299.656 -31.3995 7.17469 315.732L7.23786 317.567C299.682 -30.137 539.768 29.588 923.321 125.12C1059.42 159.018 1213.57 197.415 1394.54 223.721C1886.7 295.27 1988.17 60.9602 1999.45 -109.947C1992.66 61.2843 1899.49 309.784 1395.2 236.478C1214.31 210.184 1060.17 171.791 924.093 137.897C540.426 42.3327 300.136 -17.446 7.65512 329.685L7.71829 331.52C300.163 -16.1835 540.249 43.5414 923.801 139.073C1059.9 172.971 1214.05 211.369 1395.02 237.677C1887.19 309.221 1988.65 74.9113 1999.93 -95.9985C1993.14 75.2378 1899.97 323.737 1395.68 250.427C1214.79 224.133 1060.65 185.739 924.574 151.845C540.906 56.2813 300.617 -3.49741 8.13538 343.634L8.19855 345.469C300.643 -2.23253 540.729 57.4901 924.281 153.022C1060.38 186.92 1214.53 225.317 1395.5 251.626C1887.67 323.174 1989.14 88.85 2000.41 -82.0596C1993.63 89.174 1900.46 337.688 1396.16 264.378C1215.27 238.084 1061.13 199.69 925.054 165.796C541.387 70.2324 301.097 10.4537 8.61573 357.585L8.6789 359.42C301.123 11.7185 541.21 71.4411 924.762 166.973C1060.86 200.871 1215.02 239.268 1395.99 265.577C1888.15 337.123 1989.62 102.808 2000.89 -68.1013C1994.11 103.135 1900.94 351.639 1396.64 278.329C1215.75 252.035 1061.61 213.641 925.534 179.747C541.867 84.1834 301.577 24.4047 9.09608 371.536L9.15925 373.371C301.604 25.6695 541.69 85.3921 925.242 180.924C1061.34 214.822 1215.5 253.219 1396.47 279.525C1952.14 360.306 2009.81 51.175 2001.89 -116.368C2001.78 -121.114 2001.63 -125.783 2001.41 -130.331C2001.3 -135.069 2001.15 -139.729 2000.93 -144.27C2000.82 -149.016 2000.67 -153.685 2000.45 -158.233C2000.4 -160.507 2000.34 -162.767 2000.26 -165L1996.22 -164.861L1996.22 -164.858ZM1994.58 -164.802C1978.29 3.91422 1868.93 222.055 1392.31 152.772C1211.43 126.478 1057.29 88.0843 921.211 54.1906C537.544 -41.3735 297.254 -101.152 4.77303 245.979L4.8362 247.814C297.278 -99.8897 537.364 -40.1647 920.917 55.3669C1057.01 89.2649 1211.17 127.663 1392.14 153.971C1870.2 223.466 1979.6 4.40358 1995.8 -164.844L1994.58 -164.802L1994.58 -164.802ZM1992.53 -164.731C1971.51 1.74008 1855.35 206.198 1391.84 138.821C1210.95 112.527 1056.81 74.1332 920.733 40.2395C537.066 -55.3246 296.776 -115.103 4.29513 232.028L4.35829 233.863C296.798 -113.841 536.884 -54.1157 920.436 41.4159C1056.53 75.3139 1210.69 113.712 1391.66 140.017C1856.63 207.609 1972.84 2.24825 1993.77 -164.774L1992.53 -164.731ZM1990.05 -164.646C1964.25 -0.991143 1841.92 190.368 1391.35 124.87C1210.46 98.5758 1056.33 60.1822 920.25 26.2885C536.583 -69.2756 296.293 -129.054 3.81234 218.077L3.8755 219.912C296.318 -127.792 536.404 -68.0668 919.956 27.4648C1056.05 61.3628 1210.21 99.7605 1391.18 126.066C1843.2 191.774 1965.6 -0.478873 1991.3 -164.689L1990.05 -164.646ZM1987.11 -164.545C1956.52 -4.24556 1828.61 174.55 1390.87 110.919C1209.98 84.6248 1055.85 46.2312 919.77 12.3375C536.103 -83.2266 295.813 -143.005 3.33199 204.126L3.39516 205.961C295.837 -141.74 535.923 -82.0178 919.475 13.5138C1055.57 47.4118 1209.73 85.8095 1390.7 112.115C1829.89 175.962 1957.89 -3.71453 1988.38 -164.588L1987.11 -164.545ZM1983.69 -164.427C1948.3 -7.96894 1815.36 158.743 1390.39 96.9677C1209.5 70.6737 1055.37 32.2801 919.29 -1.61359C535.622 -97.1777 295.333 -156.956 2.85164 190.175L2.91481 192.01C295.357 -155.691 535.443 -95.9688 918.995 -0.43724C1055.09 33.4608 1209.25 71.8584 1390.22 98.1667C1816.65 160.154 1949.7 -7.42418 1984.98 -164.471L1983.69 -164.427ZM1979.75 -164.291C1939.59 -12.1392 1802.14 142.942 1389.91 83.0167C1209.02 56.7227 1054.89 18.3291 918.809 -15.5646C535.14 -111.129 294.85 -170.907 2.36898 176.224L2.43214 178.059C294.877 -169.642 534.963 -109.92 918.515 -14.3883C1054.61 19.5097 1208.77 57.9074 1389.74 84.2156C1803.43 144.355 1941.01 -11.5759 1981.06 -164.336L1979.75 -164.291ZM1975.26 -164.137C1930.35 -16.7093 1788.93 127.136 1389.43 69.0657C1208.54 42.7717 1054.41 4.37807 918.329 -29.5157C534.662 -125.08 294.372 -184.858 1.89095 162.273L1.95411 164.108C294.396 -183.594 534.482 -123.871 918.035 -28.3369C1054.13 5.5611 1208.29 43.9588 1389.26 70.2646C1790.22 128.554 1931.79 -16.1371 1976.6 -164.183L1975.26 -164.137ZM398.704 -109.854C264.299 -87.7823 138.592 -14.4932 1.4106 148.322L1.47377 150.157C142.341 -17.3289 271.075 -90.2751 409.534 -110.227L398.704 -109.854ZM1970.16 -163.961C1920.55 -21.6661 1775.67 111.329 1388.95 55.1146C1208.06 28.8206 1053.93 -9.57296 917.849 -43.4667C781.132 -77.5183 662.645 -107.01 553.49 -115.184L541.402 -114.767C653.793 -107.981 775.882 -77.5756 917.554 -42.2879C1053.65 -8.38993 1207.81 30.0078 1388.78 56.3136C1776.98 112.746 1922.04 -21.0782 1971.54 -164.008L1970.16 -163.961L1970.16 -163.961ZM328.651 -107.442C219.663 -73.5121 114.207 -0.0748246 0.927933 134.371L0.991099 136.206C116.041 -0.580126 222.995 -74.3168 333.76 -107.618L328.651 -107.442ZM1964.42 -163.763C1910.17 -26.9867 1762.33 95.5101 1388.47 41.1636C1207.58 14.8696 1053.45 -23.524 917.368 -57.4177C817.384 -82.3209 727.146 -104.797 643.175 -118.272L636.629 -118.046C722.364 -104.72 814.588 -81.7655 917.074 -56.239C1053.17 -22.341 1207.33 16.0567 1388.3 42.3625C1763.65 96.9297 1911.7 -26.3856 1965.84 -163.812L1964.42 -163.763ZM285.404 -105.953C191.358 -67.1512 98.856 3.62433 0.447585 120.42L0.510751 122.255C100.259 3.66107 193.924 -67.5432 289.261 -106.086L285.404 -105.953ZM1957.94 -163.54C1899.18 -32.6506 1748.93 79.6814 1387.99 27.2125C1207.1 0.918551 1052.97 -37.475 916.888 -71.3688C841.99 -90.0219 772.57 -107.309 707.146 -120.474L701.799 -120.29C768.696 -107.013 839.755 -89.3279 916.593 -70.19C1052.69 -36.292 1206.85 2.1057 1387.82 28.4139C1750.19 81.0882 1900.71 -32.0373 1959.4 -163.591L1957.94 -163.54Z" fill="url(#paint0_radial_52_7)" fill-opacity="0.1"/>
<defs>
<radialGradient id="paint0_radial_52_7" cx="0" cy="0" r="1" gradientUnits="userSpaceOnUse" gradientTransform="translate(1004.71 104.185) rotate(178.028) scale(1004.23 234.768)">
<stop stop-color="#131C26"/>
<stop offset="1" stop-color="white"/>
</radialGradient>
</defs>
</svg>
