<svg width="1920" height="615" viewBox="0 0 1920 615" fill="none" xmlns="http://www.w3.org/2000/svg">
<mask id="mask0_52_11" style="mask-type:alpha" maskUnits="userSpaceOnUse" x="0" y="0" width="1920" height="615">
<rect width="1920" height="615" fill="#131C26"/>
</mask>
<g mask="url(#mask0_52_11)">
<path fill-rule="evenodd" clip-rule="evenodd" d="M-565.873 13.5633C-501.344 197.211 -326.412 422.84 146.265 201.979C320.79 120.433 464.548 33.39 591.467 -43.454C949.304 -260.114 1173.44 -395.727 1576.38 -99.6935L1576.89 -97.6605C1173.81 -394.334 949.86 -258.839 592.129 -42.248C465.194 34.6057 321.415 121.659 146.813 203.245C-322.228 422.402 -498.775 202.877 -565.039 19.7512L-564.843 20.8989C-502.632 205.89 -329.565 441.561 150.105 217.436C324.63 135.89 468.388 48.8468 595.307 -27.9973C953.145 -244.657 1177.28 -380.271 1580.22 -84.2367L1580.73 -82.2037C1177.64 -378.874 953.699 -243.379 595.967 -26.788C469.032 50.0658 325.254 137.12 150.651 218.705C-323.803 440.396 -498.987 213.204 -563.466 28.8819L-563.45 28.9665C-503.375 214.968 -332.132 460.016 153.943 232.896C328.469 151.35 472.226 64.3069 599.145 -12.5372C956.983 -229.197 1181.12 -364.811 1584.06 -68.7767L1584.57 -66.7436C1181.48 -363.414 957.537 -227.919 599.805 -11.3279C472.871 65.5258 329.092 152.58 154.489 234.162C-320.359 456.039 -495.443 228.284 -559.791 43.883C-499.873 229.949 -328.766 475.702 157.78 248.359C332.305 166.813 476.063 79.7702 602.982 2.92619C960.819 -213.734 1184.95 -349.347 1587.9 -53.3133L1588.4 -51.2802C1185.32 -347.953 961.373 -212.458 603.641 4.13277C476.706 80.9865 332.928 168.04 158.325 249.623C-316.528 471.501 -491.611 243.728 -555.959 59.3276C-496.047 245.392 -324.943 491.163 161.617 263.817C336.143 182.27 479.9 95.2276 606.819 18.3836C964.657 -198.276 1188.79 -333.89 1591.73 -37.8559L1592.24 -35.8228C1189.16 -332.496 965.21 -197 607.479 19.5902C480.544 96.4439 336.766 183.498 162.162 265.08C-312.679 486.959 -487.764 259.2 -552.115 74.8032C-492.198 260.864 -321.092 506.62 165.456 279.279C339.982 197.733 483.739 110.69 610.658 33.8463C968.496 -182.814 1192.63 -318.427 1595.57 -22.3931L1596.08 -20.3601C1193 -317.033 969.049 -181.538 611.318 35.0529C484.383 111.907 340.605 198.96 166.002 280.546C-308.844 502.42 -483.926 274.66 -548.277 90.2605C-488.359 276.326 -317.256 522.083 169.294 294.737C343.82 213.191 487.577 126.148 614.496 49.3037C972.334 -167.356 1196.47 -302.97 1599.41 -6.93573L1599.92 -4.90273C1196.83 -301.573 972.887 -166.08 615.155 50.5103C488.221 127.364 344.442 214.418 169.84 296.003C-305.012 517.884 -480.096 290.108 -544.444 105.708C-484.532 291.772 -313.43 537.546 173.132 310.197C347.658 228.651 491.415 141.608 618.334 64.7638C976.172 -151.896 1200.31 -287.51 1603.25 8.52439L1603.75 10.5573C1200.67 -286.113 976.725 -150.62 618.994 65.9704C492.059 142.824 348.28 229.878 173.678 311.463C-301.172 533.341 -476.256 305.576 -540.604 121.176C-480.686 307.242 -309.584 553.005 176.971 325.657C351.496 244.111 495.254 157.068 622.172 80.2239C980.01 -136.436 1204.15 -272.05 1607.09 23.9844L1607.59 26.0174C1204.51 -270.653 980.564 -135.16 622.832 81.4304C495.897 158.284 352.119 245.338 177.516 326.921C-358.61 577.433 -512.642 254.754 -556.572 68.4641C-557.934 63.2209 -559.221 58.0475 -560.413 52.9906C-561.774 47.7554 -563.058 42.5928 -564.248 37.5439C-565.611 32.3007 -566.898 27.1274 -568.09 22.0704C-568.743 19.5574 -569.379 17.0575 -569.996 14.584L-565.874 13.5606L-565.873 13.5633ZM-564.202 13.1484C-495.461 193.678 -317.417 401.382 142.426 186.519C316.952 104.973 460.709 17.9299 587.628 -58.9141C945.466 -275.574 1169.6 -411.188 1572.54 -115.154L1573.05 -113.121C1169.97 -409.794 946.022 -274.299 588.29 -57.7081C461.356 19.1456 317.577 106.199 142.974 187.785C-318.27 403.304 -496.634 194.597 -565.447 13.4576L-564.2 13.1478L-564.202 13.1484ZM-562.108 12.6284C-489.285 189.315 -308.621 380.016 138.586 171.06C313.111 89.5134 456.869 2.47047 583.787 -74.3736C941.625 -291.033 1165.76 -426.647 1568.7 -130.613L1569.21 -128.58C1166.13 -425.254 942.184 -289.759 584.452 -73.1682C457.517 3.68554 313.739 90.7394 139.135 172.322C-309.474 381.938 -490.469 190.26 -563.368 12.9413L-562.108 12.6284ZM-559.57 11.9984C-482.803 184.203 -299.969 358.723 134.75 155.599C309.275 74.0527 453.033 -12.9902 579.952 -89.8343C937.789 -306.494 1161.92 -442.108 1564.87 -146.074L1565.37 -144.041C1162.29 -440.714 938.345 -305.219 580.614 -88.6283C453.679 -11.7745 309.9 75.2792 135.297 156.862C-300.826 360.64 -484.008 185.159 -560.847 12.3156L-559.57 11.9984ZM-556.574 11.2546C-476.009 178.379 -291.424 337.476 130.911 140.139C305.437 58.5926 449.195 -28.4503 576.113 -105.294C933.951 -321.954 1158.09 -457.568 1561.03 -161.534L1561.53 -159.501C1158.45 -456.172 934.507 -320.679 576.775 -104.088C449.841 -27.2346 306.062 59.8192 131.459 141.402C-292.28 339.399 -477.229 179.362 -557.867 11.5755L-556.574 11.2546ZM-553.081 10.3874C-468.863 171.897 -282.938 316.258 127.073 124.679C301.599 43.1325 445.356 -43.9104 572.275 -120.754C930.113 -337.414 1154.25 -473.028 1557.19 -176.994L1557.7 -174.961C1154.62 -471.632 930.669 -336.139 572.937 -119.548C446.002 -42.6947 302.224 44.3591 127.621 125.944C-283.811 318.185 -470.104 172.902 -554.396 10.7137L-553.081 10.3874ZM-549.063 9.38977C-461.352 164.779 -274.492 295.059 123.235 109.219C297.76 27.6725 441.518 -59.3704 568.437 -136.214C926.277 -352.875 1150.41 -488.489 1553.36 -192.455L1553.86 -190.422C1150.78 -487.092 926.83 -351.599 569.099 -135.008C442.164 -58.1548 298.385 28.899 123.783 110.484C-275.359 296.987 -462.612 165.812 -550.402 9.7223L-549.063 9.38977ZM-544.478 8.25141C-453.436 157.07 -266.044 273.854 119.396 93.7586C293.922 12.2124 437.68 -74.8305 564.598 -151.675C922.436 -368.334 1146.57 -503.948 1549.51 -207.914L1550.02 -205.881C1146.94 -502.552 922.992 -367.059 565.261 -150.466C438.326 -73.6121 294.548 13.4416 119.945 95.0243C-266.912 275.788 -454.718 158.119 -545.844 8.59071L-544.478 8.25141ZM1064.45 -391.203C1207.02 -406.101 1356.69 -362.223 1545.68 -223.374L1546.18 -221.341C1352.02 -364.246 1199.41 -406.866 1053.4 -388.459L1064.45 -391.203ZM-539.279 6.96062C-445.08 148.774 -257.553 252.635 115.558 78.2985C290.084 -3.2477 433.841 -90.2906 560.76 -167.135C688.273 -244.337 798.789 -311.225 906.488 -351.985L918.825 -355.047C807.428 -314.869 693.558 -245.929 561.423 -165.926C434.488 -89.0722 290.709 -2.01843 116.106 79.5642C-258.438 254.573 -446.397 149.852 -540.683 7.30913L-539.276 6.96001L-539.279 6.96062ZM1135.95 -408.953C1256.52 -403.428 1385.78 -353.49 1541.84 -238.835L1542.34 -236.802C1383.77 -353.511 1252.91 -403.341 1130.73 -407.658L1135.95 -408.953ZM-533.416 5.5051C-436.249 139.91 -248.986 231.38 111.72 62.8384C286.245 -18.7078 430.003 -105.751 556.922 -182.595C650.175 -239.056 734.339 -290.014 814.962 -329.261L821.642 -330.92C739.192 -291.321 653.17 -239.26 557.584 -181.386C430.65 -104.532 286.871 -17.4785 112.268 64.1041C-249.879 233.323 -437.602 141.014 -534.865 5.86468L-533.416 5.5051ZM1180.08 -419.91C1287.08 -404.684 1402.43 -353.898 1538 -254.295L1538.51 -252.262C1401.02 -353.449 1284.37 -404.368 1176.14 -418.933L1180.08 -419.91ZM-526.808 3.86457C-426.907 130.49 -240.354 210.094 107.881 47.3784C282.407 -34.1678 426.165 -121.211 553.083 -198.055C622.94 -240.348 687.688 -279.545 749.677 -313.053L755.134 -314.407C691.691 -280.348 625.412 -240.236 553.746 -196.846C426.811 -119.992 283.033 -32.9386 108.43 48.6468C-241.198 212.008 -428.254 131.607 -528.296 4.23398L-526.808 3.86457Z" fill="url(#paint0_radial_52_11)" fill-opacity="0.08"/>
<path fill-rule="evenodd" clip-rule="evenodd" d="M2389.99 621.305V622.944C2325.14 637.387 2246.08 637.004 2149.67 613.05C1996.59 575.012 1843.51 567.942 1709.35 590.164C1603.8 607.647 1509.96 643.267 1437.08 696.202C1408.65 716.85 1383.4 740.132 1361.89 766H1359.88C1381.65 739.637 1407.26 715.937 1436.16 694.956C1509.24 641.875 1603.31 606.166 1709.09 588.642C1843.46 566.387 1996.76 573.466 2150.06 611.553C2246.36 635.482 2325.29 635.804 2389.99 621.308M2389.99 599.34V600.973C2323.47 617.569 2241.49 618.348 2140.49 593.25C1987.4 555.212 1834.32 548.142 1700.16 570.361C1594.61 587.844 1500.77 623.464 1427.89 676.399C1392.38 702.184 1361.85 732.085 1337.34 765.997H1335.43C1360.14 731.574 1391.02 701.262 1426.97 675.15C1500.05 622.069 1594.12 586.36 1699.9 568.836C1834.27 546.581 1987.57 553.66 2140.87 591.747C2241.77 616.817 2323.63 615.988 2390 599.334L2389.99 599.34ZM2389.99 577.066V578.724C2321.88 597.624 2237.02 599.721 2131.29 573.451C1978.21 535.413 1825.12 528.343 1690.96 550.561C1585.41 568.044 1491.58 603.664 1418.69 656.6C1376.43 687.292 1341.21 723.815 1314.82 766H1312.99C1339.54 723.298 1375.07 686.361 1417.77 655.353C1490.86 602.272 1584.92 566.563 1690.7 549.039C1825.07 526.784 1978.38 533.863 2131.67 571.951C2237.3 598.196 2322.03 596.031 2389.99 577.063V577.066ZM2389.99 554.603V556.283C2320.37 577.613 2232.61 581.108 2122.1 553.648C1969.01 515.61 1815.93 508.54 1681.77 530.758C1576.22 548.241 1482.39 583.861 1409.5 636.797C1360.76 672.193 1321.38 715.344 1294.12 765.997H1292.35C1319.74 714.824 1359.42 671.256 1408.58 635.55C1481.67 582.469 1575.73 546.76 1681.52 529.236C1815.88 506.981 1969.19 514.06 2122.48 552.148C2232.91 579.587 2320.53 576.008 2390 554.6L2389.99 554.603ZM2389.99 531.831V533.507C2318.95 557.43 2228.35 562.53 2112.9 533.848C1959.82 495.81 1806.73 488.74 1672.57 510.958C1567.02 528.441 1473.19 564.061 1400.3 616.997C1345.33 656.921 1302.27 706.709 1275.07 765.997H1273.36C1300.66 706.177 1344 655.975 1399.39 615.75C1472.47 562.669 1566.53 526.96 1672.32 509.436C1806.68 487.181 1959.99 494.26 2113.28 532.348C2228.65 561.011 2319.12 555.831 2390 531.831H2389.99ZM2389.99 508.737V510.445C2317.62 537.104 2224.2 543.986 2103.71 514.048C1950.62 476.01 1797.54 468.94 1663.38 491.158C1557.83 508.642 1464 544.261 1391.11 597.197C1330.12 641.488 1283.79 697.919 1257.52 765.997H1255.86C1282.19 697.381 1328.79 640.536 1390.19 595.95C1463.28 542.869 1557.34 507.16 1663.12 489.637C1797.49 467.381 1950.79 474.46 2104.09 512.548C2224.51 542.47 2317.79 535.487 2389.99 508.737ZM2389.99 485.399V487.138C2316.39 516.673 2220.16 525.466 2094.52 494.245C1941.43 456.207 1788.34 449.137 1654.18 471.355C1548.63 488.839 1454.8 524.458 1381.91 577.394C1315.11 625.913 1265.89 688.993 1241.37 765.994H1239.73C1264.31 688.449 1313.79 624.951 1380.99 576.147C1454.08 523.066 1548.14 487.357 1653.92 469.834C1788.29 447.578 1941.59 454.657 2094.89 492.745C2220.48 523.951 2316.56 515.04 2389.99 485.396L2389.99 485.399ZM2389.99 461.777V463.515C2315.27 496.085 2216.26 506.978 2085.32 474.445C1932.24 436.407 1779.15 429.337 1644.99 451.558C1539.44 469.042 1445.61 504.661 1372.72 557.597C1300.27 610.211 1248.51 679.95 1226.49 765.997H1224.89C1246.94 679.403 1298.96 609.249 1371.8 556.351C1444.89 503.269 1538.95 467.56 1644.73 450.037C1779.1 427.781 1932.41 434.86 2085.7 472.948C2216.58 505.468 2315.46 494.458 2390 461.777H2389.99ZM2389.99 437.728V439.497C2314.25 475.268 2212.53 488.535 2076.13 454.645C1923.04 416.607 1769.96 409.537 1635.8 431.755C1530.25 449.239 1436.41 484.858 1363.53 537.794C1290.68 590.696 1238.74 660.908 1216.94 747.604C1215.42 753.654 1214.04 759.784 1212.82 765.994H1211.24C1212.48 759.657 1213.88 753.4 1215.43 747.23C1237.33 660.159 1289.48 589.657 1362.61 536.545C1435.69 483.463 1529.76 447.754 1635.54 430.231C1769.91 407.975 1923.21 415.054 2076.51 453.142C2212.87 487.023 2314.45 473.619 2390 437.724L2389.99 437.728ZM2389.99 413.372V415.178C2313.35 454.305 2208.94 470.127 2066.93 434.845C1913.85 396.807 1760.76 389.737 1626.6 411.955C1521.05 429.439 1427.22 465.058 1354.33 517.994C1281.49 570.896 1229.55 641.108 1207.74 727.804C1204.63 740.197 1202.13 752.927 1200.27 765.994H1198.7C1200.57 752.8 1203.09 739.943 1206.24 727.43C1228.14 640.359 1280.28 569.854 1353.42 516.745C1426.5 463.663 1520.56 427.954 1626.35 410.431C1760.71 388.175 1914.02 395.255 2067.31 433.342C2209.29 468.621 2313.56 452.632 2390 413.366L2389.99 413.372ZM2389.99 388.679V390.526C2312.58 433.156 2205.49 451.756 2057.74 415.045C1904.65 377.007 1751.57 369.937 1617.41 392.159C1511.86 409.642 1418.02 445.262 1345.14 498.197C1272.29 551.099 1220.35 621.311 1198.55 708.008C1193.87 726.583 1190.59 745.916 1188.77 765.997H1187.21C1189.03 745.786 1192.33 726.329 1197.04 707.633C1218.94 620.563 1271.08 550.057 1344.21 496.948C1417.3 443.867 1511.36 408.158 1617.15 390.634C1751.51 368.378 1904.82 375.458 2058.11 413.545C2205.86 450.256 2312.79 431.462 2389.99 388.676L2389.99 388.679ZM2389.99 363.622V365.511C2311.93 411.804 2202.22 433.425 2048.54 395.242C1895.46 357.204 1742.37 350.134 1608.21 372.353C1502.66 389.836 1408.83 425.455 1335.94 478.391C1263.1 531.293 1211.16 601.505 1189.35 688.201C1183.16 712.807 1179.4 738.743 1178.28 765.991H1176.72C1177.85 738.61 1181.63 712.551 1187.85 687.827C1209.75 600.757 1261.9 530.254 1335.02 477.142C1408.11 424.061 1502.17 388.351 1607.96 370.828C1742.32 348.572 1895.63 355.652 2048.92 393.739C2202.62 431.925 2312.17 410.081 2390 363.615L2389.99 363.622ZM2389.99 338.137V340.027C2311.42 390.164 2199.17 415.15 2039.35 375.442C1886.27 337.404 1733.18 330.334 1599.02 352.553C1493.47 370.036 1399.64 405.656 1326.75 458.591C1253.91 511.493 1201.97 581.705 1180.16 668.402C1172.49 698.899 1168.55 731.441 1168.73 765.991H1167.18C1166.99 731.312 1170.95 698.643 1178.65 668.027C1200.55 580.957 1252.7 510.451 1325.83 457.342C1398.92 404.261 1492.98 368.552 1598.76 351.028C1733.13 328.772 1886.44 335.852 2039.73 373.939C2199.57 413.653 2311.67 388.447 2390 338.134L2389.99 338.137ZM2389.99 312.186V314.119C2311.06 368.264 2196.33 396.928 2030.16 355.639C1877.07 317.601 1723.99 310.531 1589.83 332.75C1484.28 350.233 1390.44 385.852 1317.56 438.788C1244.71 491.69 1192.77 561.902 1170.97 648.599C1161.85 684.858 1158 724.013 1160.08 765.988H1158.53C1156.44 723.883 1160.31 684.608 1169.46 648.224C1191.36 561.154 1243.51 490.648 1316.64 437.539C1389.72 384.458 1483.79 348.749 1589.57 331.225C1723.93 308.969 1877.24 316.049 2030.53 354.136C2196.75 395.437 2311.32 366.517 2390 312.18L2389.99 312.186ZM2389.99 285.789V287.775C2310.86 346.089 2193.71 378.764 2020.96 335.842C1867.88 297.805 1714.79 290.734 1580.63 312.953C1475.08 330.436 1381.25 366.056 1308.36 418.992C1235.52 471.893 1183.57 542.105 1161.77 628.802C1151.23 670.706 1147.72 716.466 1152.29 765.991H1150.73C1146.17 716.343 1149.69 670.452 1160.26 628.428C1182.16 541.357 1234.31 470.854 1307.44 417.742C1380.52 364.661 1474.59 328.952 1580.37 311.428C1714.73 289.173 1868.04 296.252 2021.33 334.339C2194.15 377.279 2311.13 344.307 2389.99 285.783L2389.99 285.789ZM2389.99 258.913V260.954C2310.84 323.598 2191.33 360.659 2011.77 316.046C1858.68 278.008 1705.6 270.938 1571.44 293.156C1465.89 310.64 1372.06 346.259 1299.17 399.195C1226.32 452.096 1174.38 522.309 1152.58 609.005C1140.65 656.436 1137.73 708.815 1145.33 765.994H1143.76C1136.17 708.691 1139.11 656.185 1151.07 608.631C1172.97 521.56 1225.12 451.054 1298.25 397.945C1371.33 344.864 1465.4 309.155 1571.18 291.631C1705.55 269.376 1858.85 276.455 2012.15 314.543C2191.81 359.184 2311.13 321.78 2390 258.91L2389.99 258.913ZM2389.99 231.517V233.614C2310.99 300.743 2189.23 342.625 2002.57 296.246C1849.49 258.208 1696.4 251.138 1562.24 273.356C1456.69 290.84 1362.86 326.459 1289.97 379.395C1217.13 432.297 1165.19 502.509 1143.38 589.205C1130.24 641.451 1128.04 699.7 1138.78 763.761C1138.9 764.512 1139.01 765.248 1139.13 765.997H1137.56C1137.45 765.335 1137.35 764.683 1137.24 764.018C1126.47 699.737 1128.68 641.278 1141.88 588.834C1163.77 501.763 1215.92 431.257 1289.05 378.148C1362.14 325.067 1456.2 289.358 1561.99 271.835C1696.35 249.579 1849.66 256.658 2002.95 294.746C2189.74 341.159 2311.31 298.89 2390 231.517H2389.99ZM2389.99 203.562V205.72C2311.35 277.491 2187.44 324.659 1993.38 276.443C1840.29 238.405 1687.21 231.335 1553.05 253.556C1447.5 271.04 1353.67 306.659 1280.78 359.595C1207.93 412.497 1155.99 482.709 1134.19 569.405C1121.05 621.651 1118.84 679.9 1129.58 743.961C1130.85 751.507 1131.85 758.85 1132.6 765.997H1131.04C1130.3 758.933 1129.3 751.674 1128.05 744.218C1117.27 679.938 1119.49 621.478 1132.68 569.034C1154.58 481.96 1206.73 411.458 1279.86 358.349C1352.95 305.267 1447.01 269.558 1552.79 252.035C1687.16 229.779 1840.46 236.858 1993.75 274.946C2187.98 323.205 2311.7 275.592 2389.99 203.562ZM2389.99 175C2312.3 251.831 2186.57 305.335 1984.56 255.146C1831.27 217.059 1677.96 209.979 1543.6 232.235C1437.81 249.758 1343.75 285.467 1270.66 338.549C1197.53 391.658 1145.39 462.16 1123.49 549.234C1110.29 601.678 1108.08 660.141 1118.86 724.418C1121.31 739.031 1122.76 752.877 1123.3 765.997H1124.86C1124.32 752.794 1122.85 738.864 1120.39 724.161C1109.65 660.101 1111.85 601.851 1124.99 549.605C1146.8 462.906 1198.74 392.697 1271.58 339.795C1344.47 286.859 1438.31 251.24 1543.86 233.756C1678.02 211.538 1831.1 218.608 1984.19 256.646C2185.98 306.786 2311.94 253.788 2390 177.23V175.006L2389.99 175Z" fill="url(#paint1_radial_52_11)" fill-opacity="0.1"/>
</g>
<defs>
<radialGradient id="paint0_radial_52_11" cx="0" cy="0" r="1" gradientUnits="userSpaceOnUse" gradientTransform="translate(518.798 20.3009) rotate(-13.9431) scale(1055.34 267.902)">
<stop stop-color="#131C26"/>
<stop offset="1" stop-color="white"/>
</radialGradient>
<radialGradient id="paint1_radial_52_11" cx="0" cy="0" r="1" gradientUnits="userSpaceOnUse" gradientTransform="translate(1751 470.5) rotate(180) scale(639 295.5)">
<stop stop-color="white"/>
<stop offset="1" stop-color="#131C26"/>
</radialGradient>
</defs>
</svg>
